<svg id="svg" version="1.1" xmlns="http://www.w3.org/2000/svg" xmlns:xlink="http://www.w3.org/1999/xlink" width="400" height="282.8621908127209" viewBox="0, 0, 400,282.8621908127209"><g id="svgg"><path id="path0" d="M187.014 7.167 C 186.820 7.196,185.667 7.311,184.452 7.423 C 157.836 9.881,134.750 19.875,116.686 36.761 C 104.551 48.105,98.203 56.605,90.835 71.378 C 85.852 81.368,81.082 97.095,79.956 107.244 C 79.203 114.034,79.013 129.976,79.681 130.388 C 79.806 130.466,79.848 130.673,79.781 130.884 C 79.522 131.702,80.117 132.509,80.979 132.509 C 82.140 132.509,82.203 132.114,81.631 128.465 C 80.957 124.170,80.834 121.763,81.071 117.556 C 81.480 110.309,82.310 102.788,82.929 100.708 L 83.165 99.914 83.461 100.973 C 84.187 103.579,84.988 105.847,85.406 106.478 C 86.562 108.225,86.621 110.976,85.598 115.459 C 85.354 116.528,85.136 117.681,85.113 118.021 C 85.090 118.361,84.991 118.698,84.894 118.769 C 84.790 118.846,84.826 118.901,84.982 118.905 C 85.191 118.909,85.198 118.941,85.016 119.056 C 84.760 119.219,83.920 123.434,83.867 124.823 C 83.849 125.309,83.781 125.747,83.716 125.796 C 83.651 125.846,83.553 126.482,83.498 127.210 C 83.443 127.938,83.348 128.980,83.286 129.527 C 83.218 130.134,83.245 130.563,83.355 130.631 C 83.455 130.692,83.496 130.894,83.448 131.079 C 83.337 131.501,84.059 131.794,84.297 131.424 C 84.704 130.789,85.058 128.865,85.780 123.346 C 86.289 119.455,86.947 115.846,87.473 114.070 L 87.832 112.857 88.279 113.275 C 88.525 113.505,89.289 114.448,89.976 115.371 C 91.452 117.354,93.743 120.017,95.142 121.378 C 96.348 122.551,96.807 123.385,96.865 124.509 C 96.889 124.973,96.988 125.413,97.085 125.486 C 97.200 125.572,97.189 125.665,97.055 125.753 C 96.941 125.827,96.808 126.403,96.759 127.034 C 96.711 127.664,96.617 128.317,96.552 128.485 C 96.479 128.671,96.551 128.909,96.737 129.094 C 97.379 129.736,98.099 128.310,98.339 125.923 C 98.490 124.420,98.510 124.411,99.761 125.275 C 100.330 125.668,101.310 126.346,101.940 126.781 C 103.667 127.974,104.947 128.241,104.947 127.407 C 104.947 127.188,104.658 126.896,104.144 126.595 C 102.050 125.368,99.472 122.854,99.471 122.037 C 99.470 121.744,100.646 117.927,100.835 117.609 C 100.883 117.528,101.815 119.151,102.906 121.215 C 103.997 123.279,105.042 125.144,105.227 125.360 C 105.413 125.575,105.653 125.901,105.759 126.083 C 106.340 127.073,107.202 127.374,109.452 127.369 C 113.076 127.362,113.690 126.788,112.082 124.910 C 110.623 123.207,110.345 122.376,110.340 119.700 C 110.335 117.295,110.463 116.431,110.822 116.431 C 111.045 116.431,114.090 117.827,114.399 118.072 C 114.496 118.149,115.189 118.609,115.939 119.094 C 118.763 120.923,118.851 121.152,117.648 123.537 C 116.690 125.436,116.982 125.893,119.063 125.750 C 121.538 125.580,122.472 124.889,121.975 123.594 C 121.844 123.253,121.006 122.792,120.516 122.792 C 120.060 122.792,119.599 122.323,119.727 121.990 C 120.008 121.257,121.784 121.706,125.283 123.395 C 127.764 124.592,128.445 124.674,128.445 123.775 C 128.445 122.961,127.981 122.651,124.958 121.447 C 122.513 120.472,121.255 119.837,120.882 119.387 C 120.659 119.119,123.139 111.307,123.967 109.666 C 124.707 108.202,125.980 108.304,129.329 110.095 C 131.965 111.506,132.089 111.819,132.236 117.403 C 132.326 120.840,132.555 121.555,133.563 121.555 C 134.821 121.555,135.662 119.644,135.872 116.309 C 136.085 112.936,136.130 112.895,138.728 113.713 C 142.674 114.955,142.819 115.106,142.933 118.092 L 143.021 120.406 143.496 120.461 C 144.195 120.542,144.513 119.918,144.701 118.099 C 144.931 115.867,144.777 115.883,151.237 117.406 C 155.620 118.440,156.456 118.586,157.597 118.520 C 158.780 118.451,159.019 117.966,158.181 117.337 C 157.908 117.132,157.589 116.885,157.472 116.786 C 157.355 116.688,157.057 116.608,156.811 116.608 C 155.540 116.608,148.120 114.961,147.122 114.458 C 145.770 113.776,145.856 112.661,147.693 107.023 C 148.366 104.958,149.168 102.473,149.475 101.502 C 150.617 97.890,153.167 94.289,154.354 94.612 C 156.139 95.098,157.216 94.660,157.961 93.146 C 158.803 91.434,160.274 90.458,162.614 90.057 C 164.420 89.748,164.668 89.891,164.618 91.213 L 164.576 92.314 165.174 92.372 C 165.627 92.415,165.991 92.279,166.676 91.808 C 168.326 90.675,169.568 90.488,170.441 91.240 L 170.936 91.667 170.918 94.023 C 170.902 96.058,170.752 97.235,169.811 102.676 C 167.742 114.643,167.603 116.431,168.742 116.431 C 169.496 116.431,169.780 115.186,171.102 106.085 C 172.178 98.671,173.005 93.996,173.426 92.945 C 173.916 91.720,175.070 91.579,181.007 92.019 C 182.465 92.128,185.624 92.271,188.027 92.337 L 192.397 92.458 192.480 93.005 C 192.526 93.305,192.611 95.141,192.669 97.085 C 192.727 99.028,192.889 103.004,193.030 105.919 C 193.170 108.834,193.285 111.318,193.286 111.440 C 193.286 111.561,193.393 111.661,193.523 111.661 C 193.717 111.661,193.783 109.957,193.886 102.346 C 193.955 97.224,194.027 93.020,194.046 93.006 C 194.066 92.991,196.148 92.846,198.675 92.683 C 201.201 92.520,205.018 92.264,207.155 92.114 C 211.223 91.829,213.292 91.844,213.609 92.161 C 213.713 92.264,213.989 93.335,214.222 94.540 C 216.515 106.368,216.598 106.714,217.145 106.714 C 217.735 106.714,217.421 102.647,216.329 96.122 C 215.997 94.135,215.724 92.290,215.724 92.021 C 215.724 91.444,215.648 91.470,220.053 90.550 C 221.705 90.205,225.233 89.440,227.894 88.849 C 232.590 87.807,232.740 87.785,233.050 88.102 C 233.226 88.281,234.490 91.645,235.861 95.577 C 238.317 102.626,238.478 102.995,239.090 103.001 C 239.949 103.008,237.941 95.460,235.707 90.283 C 234.435 87.333,234.036 87.615,245.711 83.197 C 249.467 81.776,249.470 81.776,249.470 82.570 C 249.470 83.468,248.695 83.986,246.025 84.873 C 242.360 86.089,241.876 87.037,243.256 90.294 C 243.972 91.982,244.254 92.872,244.428 93.993 C 244.652 95.431,246.821 97.395,248.914 98.056 C 251.323 98.816,252.832 98.468,254.770 96.708 C 257.481 94.247,257.469 94.254,257.756 95.079 C 258.027 95.854,257.753 96.746,256.830 98.099 C 255.183 100.512,255.513 100.619,260.827 99.394 C 264.915 98.452,271.356 97.192,282.951 95.068 C 294.236 93.000,296.414 92.487,297.586 91.624 C 298.039 91.289,298.331 91.254,300.677 91.250 C 303.453 91.245,303.710 91.187,303.710 90.568 C 303.710 87.857,297.222 71.953,294.395 67.735 C 293.168 65.904,291.812 63.592,290.365 60.866 C 286.045 52.720,275.068 40.196,265.083 32.017 C 249.485 19.242,228.380 10.346,208.216 8.045 C 201.893 7.324,189.447 6.809,187.014 7.167 M195.806 10.725 C 195.589 10.767,195.191 10.768,194.923 10.727 C 194.654 10.687,194.832 10.653,195.318 10.651 C 195.804 10.650,196.024 10.683,195.806 10.725 M182.155 11.587 C 182.155 12.004,181.425 12.237,179.825 12.328 C 178.141 12.424,177.971 12.354,178.820 11.915 C 180.053 11.277,182.155 11.070,182.155 11.587 M204.143 14.176 C 205.748 16.950,207.673 18.116,207.140 15.990 C 206.760 14.475,210.789 15.239,215.247 17.527 C 217.319 18.591,218.615 19.726,219.516 21.266 C 219.882 21.893,220.496 22.786,220.880 23.250 C 223.440 26.348,221.762 30.380,216.296 34.269 C 209.092 39.393,204.260 39.232,203.451 33.841 C 203.068 31.293,203.048 31.273,200.825 31.269 C 199.263 31.267,198.539 31.025,198.437 30.473 C 198.181 29.077,195.303 28.972,193.569 30.296 C 191.809 31.640,189.263 32.038,188.877 31.029 C 188.184 29.218,184.266 28.873,179.681 30.218 C 176.617 31.116,175.627 32.939,178.075 33.174 C 179.719 33.332,179.521 34.155,177.773 34.431 C 176.572 34.621,176.041 34.997,175.898 35.761 C 175.679 36.931,174.912 36.632,174.912 35.377 C 174.912 34.581,174.178 33.856,173.025 33.514 C 171.681 33.115,170.711 32.561,170.575 32.114 C 170.315 31.262,169.344 30.602,167.596 30.089 C 166.094 29.649,165.697 29.076,165.464 27.019 C 164.735 20.548,173.379 14.505,185.424 13.065 C 187.036 12.872,197.563 12.580,201.581 12.617 L 203.250 12.633 204.143 14.176 M175.723 13.157 L 176.213 13.478 175.834 13.785 C 175.055 14.416,171.946 14.727,169.523 14.415 L 168.286 14.256 169.611 13.827 C 173.227 12.657,174.711 12.494,175.723 13.157 M169.358 15.981 C 171.227 17.205,168.545 17.895,158.304 18.822 C 151.459 19.442,147.905 20.161,149.293 20.645 C 149.892 20.853,149.957 21.114,149.531 21.585 C 148.998 22.174,148.410 21.784,148.410 20.843 C 148.410 19.010,154.288 15.823,155.364 17.072 C 156.006 17.818,158.614 17.818,160.601 17.071 C 164.477 15.615,168.109 15.163,169.358 15.981 M146.113 19.405 C 146.113 19.681,144.523 20.694,142.888 21.460 C 139.910 22.855,139.675 22.673,142.286 20.995 C 144.208 19.761,146.113 18.969,146.113 19.405 M164.802 19.533 C 166.069 20.421,163.718 22.253,161.219 22.325 L 160.336 22.350 160.280 21.667 C 160.149 20.078,163.394 18.547,164.802 19.533 M225.451 20.853 C 228.445 22.353,228.684 22.773,226.309 22.356 C 222.746 21.731,221.100 20.774,221.786 19.726 C 222.137 19.190,222.128 19.187,225.451 20.853 M230.819 20.123 C 230.947 20.330,230.462 20.512,230.125 20.382 C 229.781 20.250,229.961 19.965,230.389 19.965 C 230.572 19.965,230.765 20.036,230.819 20.123 M163.697 23.859 C 164.153 24.597,162.444 25.476,158.195 26.689 C 156.469 27.182,154.913 27.662,154.737 27.756 C 153.880 28.215,155.224 26.154,156.328 25.317 C 157.754 24.235,163.257 23.147,163.697 23.859 M140.125 24.513 C 139.848 25.180,139.393 25.434,138.100 25.641 C 136.279 25.933,135.513 27.047,136.606 27.813 C 136.819 27.962,136.948 28.129,136.892 28.184 C 136.165 28.912,120.965 36.394,120.717 36.147 C 120.266 35.696,127.215 30.537,131.354 28.251 C 133.324 27.163,140.165 23.851,140.255 23.942 C 140.297 23.983,140.238 24.240,140.125 24.513 M226.325 25.188 C 227.986 25.797,229.163 25.833,230.179 25.303 C 231.153 24.795,231.322 24.807,232.255 25.449 C 233.268 26.147,235.439 28.224,235.300 28.363 C 234.836 28.827,223.999 25.210,224.317 24.697 C 224.436 24.504,224.513 24.523,226.325 25.188 M211.137 27.643 C 209.869 28.993,212.085 31.453,214.622 31.510 C 216.525 31.554,216.254 30.658,213.675 28.381 C 212.214 27.092,211.775 26.964,211.137 27.643 M163.150 27.839 C 163.786 28.476,163.098 29.181,161.260 29.773 C 159.730 30.267,159.141 30.573,158.042 31.446 C 157.164 32.144,157.222 32.161,155.813 30.801 C 154.277 29.319,154.155 29.508,157.200 28.658 C 161.375 27.492,162.630 27.319,163.150 27.839 M227.594 28.081 C 236.074 30.281,238.645 32.686,232.517 32.686 C 229.693 32.686,223.297 29.977,223.568 28.896 C 223.923 27.486,224.696 27.329,227.594 28.081 M167.358 28.119 C 166.750 28.727,167.290 29.563,168.231 29.473 C 169.164 29.384,169.134 28.030,168.197 27.951 C 167.857 27.923,167.479 27.998,167.358 28.119 M173.852 30.760 C 173.852 31.572,174.758 32.368,175.603 32.297 C 176.187 32.248,176.234 32.203,176.199 31.714 C 176.110 30.449,173.852 29.531,173.852 30.760 M136.216 32.387 C 135.378 34.627,133.691 36.516,131.401 37.779 C 128.946 39.132,121.665 44.061,118.320 46.635 C 115.386 48.891,115.234 48.993,114.943 48.881 C 114.341 48.650,114.759 45.547,115.621 43.846 C 117.217 40.696,121.433 37.814,132.244 32.482 L 136.484 30.391 136.537 30.890 C 136.566 31.164,136.422 31.838,136.216 32.387 M224.930 32.067 C 228.405 33.608,229.152 34.628,229.152 37.833 C 229.152 38.850,229.173 38.844,228.023 38.138 C 224.519 35.987,221.120 32.996,221.304 32.225 C 221.627 30.867,222.171 30.844,224.930 32.067 M165.534 31.992 C 165.833 32.291,166.121 32.749,166.174 33.008 C 166.338 33.819,166.690 34.354,167.143 34.485 C 167.383 34.554,167.968 34.708,168.442 34.826 C 168.995 34.964,169.519 35.256,169.900 35.636 C 170.741 36.478,170.678 36.635,169.567 36.457 C 166.384 35.945,165.331 36.664,163.674 40.483 C 162.207 43.863,161.353 44.323,159.577 42.692 C 158.042 41.282,158.009 39.929,159.510 39.929 C 160.402 39.929,161.462 39.238,163.355 37.420 C 165.915 34.962,165.915 34.953,163.051 33.469 C 161.256 32.540,161.233 32.520,161.926 32.507 C 162.802 32.490,163.988 32.084,164.222 31.721 C 164.492 31.303,164.936 31.395,165.534 31.992 M241.275 35.247 C 242.196 36.444,242.108 36.584,240.662 36.224 C 239.032 35.818,238.581 35.209,238.414 33.185 L 238.307 31.890 239.383 33.039 C 239.975 33.670,240.826 34.664,241.275 35.247 M186.206 33.965 C 184.846 35.119,183.656 35.427,183.777 34.595 C 183.847 34.117,184.691 33.603,185.716 33.416 C 186.782 33.220,186.913 33.367,186.206 33.965 M156.563 35.614 C 156.451 35.861,156.280 36.013,156.183 35.954 C 155.941 35.804,155.962 35.097,156.226 34.519 L 156.444 34.040 156.606 34.603 C 156.714 34.981,156.700 35.314,156.563 35.614 M221.020 35.707 C 224.601 37.406,228.657 40.114,230.760 42.211 C 232.747 44.193,233.170 45.024,234.094 48.763 C 234.298 49.589,234.750 50.876,235.099 51.622 C 236.068 53.696,235.847 54.815,234.588 54.206 C 232.785 53.334,219.246 39.961,217.504 37.331 C 216.778 36.236,216.814 35.997,217.799 35.344 C 218.786 34.690,218.905 34.704,221.020 35.707 M182.202 37.252 C 182.225 37.930,182.189 38.539,182.123 38.607 C 181.956 38.774,179.396 37.893,178.563 37.381 C 177.745 36.879,177.759 36.867,180.114 36.127 C 182.181 35.477,182.141 35.456,182.202 37.252 M155.270 37.907 C 155.238 38.178,155.116 38.432,154.998 38.471 C 154.685 38.573,154.509 37.682,154.778 37.358 C 155.081 36.993,155.343 37.285,155.270 37.907 M173.523 37.964 C 175.533 38.656,176.982 39.697,176.544 40.135 C 176.192 40.486,172.085 38.336,172.085 37.800 C 172.085 37.553,172.447 37.594,173.523 37.964 M215.696 39.064 C 221.328 43.860,232.027 54.989,231.736 55.748 C 231.493 56.380,225.428 58.850,223.453 59.120 C 222.668 59.228,222.655 59.222,222.094 58.406 C 221.365 57.345,219.794 54.082,219.791 53.619 C 219.786 53.031,219.201 52.109,216.910 49.084 C 212.961 43.869,210.247 39.843,210.247 39.200 C 210.247 38.815,211.056 38.360,212.279 38.058 C 213.931 37.649,214.090 37.696,215.696 39.064 M167.732 39.488 C 167.883 39.882,167.673 40.283,167.314 40.283 C 166.956 40.283,166.746 39.882,166.897 39.488 C 166.953 39.342,167.141 39.223,167.314 39.223 C 167.488 39.223,167.676 39.342,167.732 39.488 M182.763 40.486 C 183.729 40.677,184.593 40.879,184.683 40.934 C 185.272 41.298,182.421 49.831,181.129 51.573 L 180.683 52.174 180.198 51.632 C 179.706 51.081,179.549 50.517,179.158 47.880 C 179.046 47.123,178.693 45.949,178.336 45.141 C 177.421 43.072,177.327 42.672,177.578 41.908 C 178.246 39.870,178.834 39.709,182.763 40.486 M208.696 41.034 C 210.820 43.534,214.749 49.129,214.954 49.948 C 215.205 50.948,213.972 51.868,212.126 52.059 C 209.523 52.327,209.306 53.094,211.347 54.814 C 213.758 56.845,214.318 56.953,216.181 55.746 C 217.954 54.598,218.084 54.658,219.514 57.273 C 220.454 58.994,220.566 59.487,220.086 59.798 C 219.422 60.229,213.429 61.807,210.463 62.333 C 209.103 62.573,209.043 62.480,208.125 58.658 C 207.927 57.832,207.527 56.701,207.237 56.144 C 205.717 53.223,205.676 50.515,207.131 49.129 C 208.685 47.650,208.212 46.144,206.351 46.646 C 205.543 46.863,205.124 46.783,205.124 46.412 C 205.124 46.105,205.870 45.760,206.534 45.760 C 208.012 45.760,208.353 44.980,207.416 43.741 C 206.847 42.989,206.770 42.408,207.086 41.254 C 207.473 39.847,207.665 39.821,208.696 41.034 M239.116 41.075 C 239.657 42.048,240.444 43.101,241.797 44.659 C 243.276 46.363,244.150 47.739,243.822 47.848 C 243.140 48.076,240.117 45.085,239.603 43.673 C 239.399 43.115,238.872 42.236,238.432 41.721 C 237.992 41.206,237.633 40.746,237.633 40.699 C 237.633 40.434,238.945 40.766,239.116 41.075 M160.702 41.444 C 160.151 41.994,160.592 42.756,161.461 42.756 C 162.038 42.756,162.367 42.467,162.367 41.961 C 162.367 41.197,161.285 40.860,160.702 41.444 M129.329 41.907 C 129.329 42.173,128.505 43.101,126.703 44.866 C 123.721 47.789,123.009 48.761,122.299 50.883 C 121.498 53.276,120.362 54.779,119.096 55.120 C 118.289 55.337,117.626 55.962,116.937 57.155 C 115.815 59.099,115.578 59.095,114.963 57.121 C 113.796 53.380,113.914 52.642,115.977 50.761 C 118.226 48.710,125.717 43.307,127.823 42.217 C 129.405 41.398,129.329 41.414,129.329 41.907 M187.522 42.778 C 187.583 43.082,187.633 43.595,187.633 43.918 C 187.633 45.175,187.989 46.284,188.429 46.394 C 189.804 46.739,189.809 48.593,188.439 50.139 C 186.989 51.776,186.926 51.922,186.926 53.665 C 186.926 56.580,188.159 59.897,190.190 62.443 C 191.129 63.621,191.318 63.959,191.034 63.956 C 189.951 63.944,181.054 62.711,180.708 62.526 C 179.880 62.083,182.182 53.897,185.273 46.293 C 186.823 42.481,187.310 41.719,187.522 42.778 M167.567 43.034 C 168.046 43.513,167.743 43.993,166.961 43.993 C 166.110 43.993,165.757 43.227,166.475 42.938 C 167.054 42.706,167.256 42.723,167.567 43.034 M170.904 44.545 C 171.535 44.870,172.085 45.446,172.085 45.782 C 172.085 46.673,170.226 49.749,168.896 51.060 C 167.363 52.570,167.228 52.780,167.063 53.917 C 166.803 55.712,163.677 58.304,161.772 58.304 C 160.645 58.304,155.739 56.434,155.546 55.931 C 155.155 54.913,158.577 51.161,161.988 48.869 C 163.135 48.097,163.385 48.088,164.813 48.763 C 166.298 49.466,166.948 49.456,167.686 48.719 C 168.538 47.869,169.588 46.161,169.709 45.429 C 169.906 44.243,170.075 44.118,170.904 44.545 M112.627 47.791 C 112.088 51.019,111.668 51.724,108.048 55.481 C 104.344 59.324,102.301 61.590,99.440 65.023 C 96.177 68.941,96.196 68.925,96.358 67.698 C 96.701 65.104,98.858 60.076,100.654 57.686 C 102.747 54.900,108.264 48.780,111.130 46.064 L 112.809 44.474 112.866 45.248 C 112.897 45.674,112.789 46.818,112.627 47.791 M248.425 48.393 C 248.907 48.858,249.313 49.431,249.377 49.735 C 249.580 50.702,250.065 51.441,250.850 51.981 C 252.174 52.892,252.666 54.604,251.945 55.786 C 251.338 56.783,250.505 56.384,248.364 54.070 C 246.487 52.042,245.881 50.650,246.107 48.883 C 246.364 46.878,246.768 46.793,248.425 48.393 M172.968 49.589 C 172.968 49.810,172.384 50.353,172.146 50.353 C 171.860 50.353,171.851 50.261,172.091 49.812 C 172.259 49.497,172.968 49.317,172.968 49.589 M161.353 50.221 C 159.771 51.861,160.188 52.758,163.041 53.853 C 165.171 54.671,165.650 54.466,165.197 52.933 C 164.413 50.276,162.561 48.969,161.353 50.221 M154.947 52.639 C 154.947 53.356,153.965 54.673,153.213 54.965 C 152.213 55.353,151.709 54.158,152.543 53.375 C 153.141 52.813,154.947 52.260,154.947 52.639 M204.917 54.483 C 205.564 56.274,207.327 62.344,207.229 62.437 C 206.895 62.750,198.896 63.809,197.983 63.661 C 197.171 63.529,197.096 63.411,196.830 61.871 L 196.607 60.579 197.238 59.629 C 198.479 57.760,201.473 54.439,203.083 53.145 C 204.128 52.306,204.133 52.310,204.917 54.483 M178.534 54.340 C 178.876 54.405,179.319 54.414,179.518 54.362 C 180.278 54.164,180.154 55.236,178.962 59.189 C 178.040 62.246,178.025 62.262,176.310 62.132 C 172.182 61.817,166.834 57.371,168.536 55.669 C 169.144 55.061,169.951 55.486,170.910 56.921 C 173.902 61.398,177.279 59.741,176.617 54.119 L 176.468 52.850 177.190 53.537 C 177.621 53.946,178.164 54.271,178.534 54.340 M243.905 54.711 C 246.688 57.037,248.073 57.863,248.966 57.732 C 249.660 57.630,249.640 58.129,248.926 58.730 C 247.999 59.510,247.619 59.352,245.732 57.404 C 243.089 54.674,242.237 55.816,244.599 58.922 C 246.370 61.251,246.434 61.600,246.076 66.857 L 245.848 70.197 245.019 68.949 C 244.563 68.263,243.683 67.118,243.063 66.404 C 239.571 62.378,235.866 57.266,235.866 56.475 C 235.866 55.488,237.358 55.301,238.893 56.095 C 241.235 57.308,242.089 56.864,241.701 54.635 C 241.389 52.843,241.682 52.853,243.905 54.711 M112.606 55.486 C 112.667 56.075,112.917 57.055,113.161 57.665 C 113.942 59.618,113.767 60.064,111.034 63.074 C 108.940 65.380,106.985 68.366,105.089 72.154 C 102.377 77.572,99.151 82.509,98.322 82.509 C 97.895 82.509,97.106 79.691,96.377 75.558 L 95.914 72.936 96.844 71.583 C 100.575 66.148,104.580 61.337,109.512 56.365 C 112.370 53.483,112.395 53.476,112.606 55.486 M271.608 55.159 C 272.013 55.702,272.242 57.244,271.918 57.244 C 271.411 57.244,270.671 56.221,270.671 55.520 C 270.671 54.453,270.989 54.331,271.608 55.159 M151.142 56.000 C 151.593 56.498,151.380 57.097,150.381 58.133 C 149.012 59.553,148.730 59.209,149.658 57.248 C 150.471 55.530,150.610 55.413,151.142 56.000 M277.161 57.925 C 278.293 58.531,278.376 60.390,277.356 62.308 C 276.690 63.562,276.622 63.806,276.640 64.887 C 276.664 66.292,276.571 66.292,275.179 64.892 C 272.886 62.586,272.603 61.816,273.330 59.871 C 274.114 57.775,275.534 57.054,277.161 57.925 M157.781 58.833 C 161.731 60.294,161.484 60.170,161.484 60.697 C 161.484 60.948,161.396 61.319,161.288 61.521 C 161.180 61.722,161.071 62.625,161.047 63.526 C 160.982 65.899,160.747 66.196,157.462 68.039 C 156.321 68.680,155.565 69.687,155.284 70.939 C 154.844 72.904,153.914 73.836,153.286 72.939 C 152.885 72.367,152.936 71.076,153.445 68.905 C 154.059 66.288,154.044 66.143,153.048 65.098 C 150.904 62.848,150.509 61.040,151.759 59.199 C 153.078 57.257,153.459 57.234,157.781 58.833 M235.250 59.231 C 237.520 61.561,238.833 63.604,238.061 63.604 C 237.636 63.604,236.749 62.625,236.749 62.155 C 236.749 60.752,233.632 59.463,232.371 60.346 C 231.807 60.741,231.876 61.316,232.703 63.112 C 233.494 64.830,233.525 65.286,232.953 66.784 C 232.128 68.944,233.290 72.968,234.739 72.968 C 236.774 72.968,237.425 71.182,236.470 68.221 C 235.736 65.943,236.152 65.293,237.570 66.507 C 238.602 67.390,238.922 68.153,238.771 69.367 C 238.652 70.316,238.665 70.358,239.226 70.826 C 239.601 71.139,239.934 71.677,240.176 72.359 C 240.668 73.750,241.143 73.847,242.381 72.809 C 244.008 71.447,244.621 71.481,244.599 72.933 C 244.581 74.098,244.210 74.780,243.461 75.023 C 241.940 75.515,243.089 76.913,245.848 77.928 C 248.620 78.948,248.524 79.866,245.492 81.345 C 243.484 82.324,238.383 84.254,235.693 85.053 L 234.779 85.325 234.332 84.844 C 233.721 84.186,233.402 83.524,231.698 79.383 C 230.885 77.408,229.134 73.349,227.805 70.361 C 223.531 60.749,223.587 61.226,226.590 60.002 C 228.972 59.031,232.988 57.615,233.392 57.604 C 233.538 57.600,234.374 58.332,235.250 59.231 M271.124 59.445 C 271.456 59.951,271.313 60.383,270.921 60.058 C 270.693 59.869,270.558 59.011,270.756 59.011 C 270.802 59.011,270.968 59.206,271.124 59.445 M222.022 62.588 C 222.785 63.256,223.259 64.225,226.388 71.506 C 229.534 78.825,231.678 84.269,231.697 84.982 C 231.727 86.084,229.307 86.932,222.350 88.259 C 215.099 89.643,215.131 89.663,213.704 82.597 C 213.253 80.362,212.482 76.784,211.992 74.647 C 210.618 68.659,209.742 64.317,209.889 64.226 C 209.997 64.159,214.502 63.242,219.700 62.228 C 221.121 61.951,221.331 61.984,222.022 62.588 M171.585 63.013 C 172.022 63.409,171.992 63.895,171.511 64.207 C 170.454 64.890,169.527 64.613,169.975 63.748 C 170.509 62.716,171.006 62.489,171.585 63.013 M177.114 64.373 C 177.430 64.604,177.427 64.681,177.030 66.846 C 176.560 69.408,176.501 69.477,176.050 67.989 C 175.319 65.573,175.927 63.505,177.114 64.373 M207.496 64.765 C 207.649 64.918,207.774 65.190,207.774 65.369 C 207.774 65.549,208.059 66.596,208.407 67.698 C 210.185 73.323,213.045 87.752,212.583 88.767 C 211.903 90.259,201.994 91.484,195.539 90.874 L 194.346 90.762 194.346 77.978 L 194.346 65.194 194.920 65.183 C 195.236 65.176,197.323 65.027,199.558 64.850 C 204.978 64.423,207.131 64.400,207.496 64.765 M188.733 64.847 C 191.942 65.065,192.141 65.133,192.438 66.114 C 192.679 66.910,192.721 87.877,192.486 89.885 L 192.377 90.813 189.077 90.808 C 177.128 90.790,174.205 90.297,174.205 88.303 C 174.205 85.954,174.883 85.711,177.774 87.027 C 181.677 88.804,183.681 88.383,183.645 85.794 C 183.628 84.631,183.105 83.624,181.959 82.551 C 180.312 81.008,179.978 79.717,180.919 78.534 C 181.903 77.295,181.661 76.277,179.665 73.270 C 178.177 71.029,177.987 70.482,178.152 68.908 C 178.270 67.776,178.987 65.637,179.379 65.245 C 179.879 64.745,184.409 64.553,188.733 64.847 M93.634 72.289 C 93.009 74.160,90.513 78.165,90.325 77.600 C 90.146 77.064,91.903 72.480,93.352 69.700 L 93.905 68.640 93.956 69.904 C 93.994 70.831,93.908 71.468,93.634 72.289 M293.763 69.832 C 294.400 70.503,295.098 71.818,295.019 72.201 C 294.947 72.551,292.965 70.597,292.825 70.037 C 292.600 69.142,293.020 69.051,293.763 69.832 M276.951 73.246 C 278.441 74.870,279.919 75.966,280.621 75.970 C 281.560 75.975,286.001 81.770,286.602 83.775 C 286.876 84.687,286.572 85.001,284.833 85.605 C 280.606 87.072,279.836 88.155,281.100 90.856 C 281.867 92.495,281.493 93.286,279.950 93.286 C 278.569 93.286,277.350 92.078,275.605 88.980 C 274.996 87.899,274.037 86.275,273.474 85.371 C 272.359 83.582,272.087 82.847,272.086 81.618 C 272.083 79.062,270.564 76.502,269.051 76.502 C 268.814 76.502,268.267 76.273,267.835 75.993 C 266.840 75.350,265.136 73.597,265.636 73.732 C 265.830 73.784,266.466 73.921,267.049 74.035 C 269.207 74.457,271.103 75.535,274.270 78.141 C 276.331 79.837,277.505 80.486,278.196 80.312 C 279.044 80.099,278.677 79.073,276.432 75.376 C 275.230 73.395,274.785 72.317,274.970 71.833 C 275.152 71.360,275.349 71.501,276.951 73.246 M285.510 72.965 C 286.024 73.686,287.350 76.529,287.796 77.865 C 288.547 80.117,287.749 81.795,286.788 79.983 C 286.566 79.566,285.822 78.512,285.133 77.642 C 283.190 75.187,283.101 74.756,284.196 73.101 C 284.725 72.301,285.016 72.270,285.510 72.965 M263.375 73.886 C 263.954 74.447,264.132 74.912,263.767 74.912 C 263.475 74.912,262.544 73.914,262.544 73.600 C 262.544 73.193,262.723 73.254,263.375 73.886 M94.305 76.546 C 94.403 76.667,94.656 77.401,94.867 78.177 C 95.078 78.952,95.615 80.503,96.061 81.622 C 97.212 84.514,97.195 84.818,95.716 87.866 C 94.441 90.491,92.763 93.444,92.351 93.786 C 91.749 94.286,89.753 87.559,89.753 85.030 C 89.753 82.392,93.454 75.493,94.305 76.546 M261.694 77.628 C 262.756 78.317,263.804 78.725,266.005 79.310 C 267.670 79.753,268.933 81.235,269.278 83.152 C 269.589 84.884,269.669 85.054,270.320 85.372 C 271.976 86.183,275.173 91.339,274.840 92.664 C 274.476 94.116,271.700 93.489,271.282 91.860 C 270.945 90.545,268.927 87.289,268.445 87.282 C 268.338 87.280,267.058 88.227,265.600 89.386 C 259.463 94.266,259.114 94.446,258.294 93.154 C 255.935 89.434,255.496 81.637,257.586 80.571 C 258.436 80.137,258.943 79.446,259.301 78.230 C 259.788 76.579,259.994 76.527,261.694 77.628 M393.033 77.552 C 392.384 77.980,391.301 78.214,384.806 79.330 C 377.582 80.571,365.981 82.705,361.749 83.571 C 352.222 85.520,339.701 87.896,312.014 93.008 C 303.317 94.613,294.015 96.368,291.343 96.906 C 288.670 97.445,283.145 98.483,279.064 99.213 C 274.982 99.943,267.747 101.289,262.986 102.204 C 258.224 103.119,249.360 104.789,243.286 105.915 C 237.213 107.040,230.813 108.235,229.064 108.570 C 223.143 109.703,215.479 111.142,211.131 111.938 C 207.130 112.670,204.893 113.092,197.527 114.501 C 196.020 114.789,194.152 115.141,193.375 115.283 C 190.222 115.859,187.151 116.406,186.484 116.511 C 185.286 116.700,173.461 118.952,171.032 119.454 C 170.502 119.563,169.535 119.675,168.882 119.702 C 168.219 119.730,167.476 119.874,167.196 120.031 C 166.747 120.281,161.007 121.423,143.551 124.734 C 140.442 125.324,136.904 125.997,135.689 126.230 C 134.474 126.462,132.566 126.822,131.449 127.028 C 130.331 127.235,128.582 127.559,127.562 127.749 C 126.542 127.938,122.447 128.691,118.463 129.420 C 106.332 131.643,105.420 131.811,104.505 131.996 C 104.019 132.094,102.946 132.292,102.120 132.435 C 100.595 132.700,95.978 133.565,93.728 134.008 C 93.048 134.142,91.776 134.384,90.901 134.546 C 89.026 134.893,87.517 135.180,84.982 135.670 C 83.962 135.867,82.213 136.198,81.095 136.406 C 79.978 136.613,77.473 137.089,75.530 137.463 C 67.858 138.943,62.847 139.896,52.739 141.801 C 49.920 142.332,44.117 143.438,39.841 144.258 C 30.748 146.003,23.458 147.357,17.049 148.493 C 4.631 150.693,3.224 151.092,4.175 152.147 C 4.925 152.980,7.322 152.594,62.986 142.674 C 85.432 138.673,89.699 137.866,101.413 135.402 C 108.600 133.891,113.751 133.009,121.392 131.982 C 128.901 130.972,132.828 130.340,144.876 128.204 C 150.658 127.179,163.936 124.862,174.382 123.055 C 194.006 119.660,207.543 117.280,214.134 116.064 C 222.320 114.554,232.177 112.800,246.820 110.249 C 264.980 107.085,270.829 106.015,277.714 104.599 C 283.822 103.342,287.226 102.759,294.700 101.688 C 300.808 100.813,304.149 100.244,316.431 97.987 C 320.950 97.157,329.973 95.558,336.484 94.433 C 351.139 91.903,356.435 90.964,360.512 90.176 C 368.443 88.643,371.201 88.297,371.201 88.835 C 371.201 89.526,370.808 89.951,354.247 107.136 C 348.170 113.442,343.168 118.680,343.131 118.778 C 343.094 118.875,342.411 119.600,341.614 120.387 C 340.816 121.175,340.113 121.960,340.051 122.132 C 339.989 122.303,339.738 122.520,339.492 122.613 C 339.247 122.706,339.046 122.851,339.046 122.935 C 339.046 123.019,338.489 123.659,337.809 124.357 C 337.129 125.055,336.572 125.706,336.572 125.803 C 336.572 125.901,336.374 126.056,336.131 126.148 C 335.888 126.241,335.689 126.407,335.689 126.517 C 335.689 126.628,335.192 127.220,334.585 127.833 C 333.977 128.446,333.296 129.173,333.071 129.447 C 332.845 129.722,331.251 131.418,329.527 133.216 C 322.182 140.876,321.378 141.792,321.378 142.507 C 321.378 143.706,322.524 142.852,329.682 136.315 C 333.122 133.173,336.276 130.359,340.283 126.855 C 341.886 125.453,344.589 123.067,346.290 121.553 C 350.220 118.055,375.319 95.996,382.774 89.490 C 394.937 78.874,395.230 78.602,395.230 77.925 C 395.230 77.194,393.915 76.971,393.033 77.552 M178.799 79.318 C 178.799 79.761,176.948 82.216,175.852 83.226 C 173.975 84.955,175.009 82.288,177.034 80.176 C 178.193 78.967,178.799 78.672,178.799 79.318 M102.571 81.942 C 102.056 83.930,100.927 86.396,100.532 86.396 C 99.538 86.396,100.628 82.744,102.272 80.565 L 102.739 79.947 102.793 80.413 C 102.822 80.670,102.723 81.358,102.571 81.942 M169.283 80.214 C 173.388 80.616,173.730 81.048,172.803 84.672 C 171.912 88.155,170.056 89.951,170.181 87.209 C 170.229 86.142,170.224 86.130,169.728 86.073 C 169.137 86.006,168.554 86.461,168.546 86.997 C 168.540 87.340,168.508 87.331,168.104 86.872 C 167.466 86.147,167.473 85.717,168.151 83.682 C 168.707 82.015,168.616 81.757,167.427 81.617 C 166.008 81.450,165.626 80.580,166.820 80.235 C 167.141 80.143,167.414 80.060,167.428 80.051 C 167.442 80.043,168.277 80.116,169.283 80.214 M262.191 81.890 C 261.847 82.305,262.252 83.052,263.431 84.177 C 265.178 85.842,265.883 85.457,264.846 83.403 C 264.077 81.878,262.803 81.153,262.191 81.890 M87.209 84.398 C 86.878 85.007,86.836 84.575,87.143 83.728 C 87.329 83.217,87.370 83.185,87.419 83.515 C 87.452 83.728,87.357 84.125,87.209 84.398 M295.212 86.466 C 296.763 87.507,297.217 88.312,296.878 89.423 L 296.696 90.018 295.546 88.860 C 294.419 87.725,292.756 85.618,292.756 85.325 C 292.756 85.048,293.867 85.564,295.212 86.466 M89.569 91.947 C 91.340 97.296,91.342 97.347,89.985 100.707 C 89.494 101.921,88.912 103.472,88.692 104.152 C 87.871 106.683,87.507 107.098,86.935 106.157 C 85.555 103.887,84.895 96.299,85.762 92.668 C 86.497 89.587,87.746 86.514,87.986 87.191 C 88.055 87.385,88.768 89.526,89.569 91.947 M99.494 88.207 C 99.898 88.962,99.960 89.751,99.723 91.118 C 99.302 93.553,98.601 98.624,98.429 100.480 C 98.172 103.248,98.199 103.257,95.122 99.338 L 93.284 96.997 94.896 93.772 C 98.058 87.446,98.682 86.690,99.494 88.207 M101.656 94.015 C 101.852 94.992,101.775 97.398,101.481 99.477 C 101.276 100.929,101.225 102.118,101.301 103.680 C 101.416 106.024,101.280 106.328,100.663 105.113 C 100.266 104.333,100.250 101.862,100.620 98.674 C 101.217 93.533,101.398 92.721,101.656 94.015 M94.081 101.146 C 94.664 101.925,96.592 104.041,98.366 105.850 C 100.139 107.658,101.590 109.236,101.590 109.357 C 101.590 110.065,98.218 120.848,97.996 120.848 C 96.899 120.848,91.334 114.742,89.760 111.810 C 88.530 109.520,88.605 108.571,90.363 104.240 C 90.777 103.220,91.418 101.594,91.787 100.626 C 92.452 98.883,92.461 98.871,92.740 99.298 C 92.895 99.536,93.498 100.367,94.081 101.146 M147.880 101.067 C 147.880 101.727,147.715 102.120,147.438 102.120 C 147.004 102.120,146.850 101.135,147.185 100.507 C 147.441 100.030,147.880 100.384,147.880 101.067 M146.057 105.435 C 145.917 106.779,144.667 111.727,144.202 112.776 C 143.754 113.789,143.529 113.815,141.548 113.085 C 135.121 110.715,135.080 108.931,141.405 106.815 C 143.576 106.088,145.166 105.331,145.655 104.790 C 146.141 104.251,146.175 104.306,146.057 105.435 M306.115 104.618 C 304.153 104.870,302.692 105.264,301.459 105.876 C 300.257 106.472,297.880 108.507,297.880 108.939 C 297.880 109.075,297.801 109.187,297.706 109.187 C 296.354 109.187,295.351 116.804,296.439 118.814 C 296.648 119.201,296.820 119.738,296.820 120.006 C 296.820 120.275,296.899 120.495,296.996 120.495 C 297.094 120.495,297.173 120.719,297.173 120.993 C 297.173 121.303,297.338 121.635,297.610 121.871 C 297.851 122.080,298.098 122.452,298.159 122.698 C 298.221 122.944,298.346 123.145,298.436 123.145 C 298.527 123.145,298.908 123.443,299.284 123.807 C 301.213 125.677,303.892 126.540,307.774 126.543 C 315.505 126.548,320.535 121.546,319.876 114.508 C 319.208 107.385,313.958 103.611,306.115 104.618 M120.153 106.110 C 122.524 106.802,122.631 107.373,121.272 112.052 C 119.345 118.685,119.277 118.718,113.852 115.670 L 111.008 114.071 112.063 111.867 C 114.886 105.965,116.273 104.978,120.153 106.110 M282.014 108.657 C 278.610 109.202,276.881 109.750,275.220 110.812 C 274.134 111.507,272.438 113.016,272.438 113.288 C 272.438 113.365,272.279 113.587,272.085 113.781 C 271.890 113.975,271.731 114.285,271.731 114.469 C 271.731 114.653,271.620 114.846,271.484 114.898 C 270.636 115.223,269.865 121.585,270.617 122.051 C 270.733 122.122,270.909 122.688,271.009 123.307 C 271.128 124.046,271.316 124.550,271.556 124.774 C 271.758 124.962,271.969 125.348,272.026 125.632 C 272.082 125.916,272.193 126.148,272.272 126.148 C 272.350 126.148,272.469 126.327,272.535 126.546 C 272.759 127.282,274.714 128.948,276.219 129.685 C 284.037 133.511,294.754 128.944,294.933 121.710 C 294.973 120.118,294.542 119.880,292.580 120.406 C 292.045 120.550,291.330 120.668,290.989 120.669 C 290.211 120.672,289.046 121.772,289.046 122.505 C 289.046 122.762,288.887 123.108,288.693 123.274 C 288.498 123.441,288.339 123.674,288.339 123.793 C 288.339 123.911,288.101 124.149,287.809 124.321 C 287.518 124.494,287.279 124.687,287.279 124.751 C 287.279 125.039,284.252 126.379,283.421 126.459 C 281.734 126.621,278.703 125.338,277.448 123.930 C 276.073 122.386,276.142 118.493,277.586 116.224 C 279.464 113.272,284.446 112.478,287.219 114.689 C 290.373 117.203,294.600 115.712,293.101 112.614 C 292.380 111.126,290.650 109.889,287.946 108.931 C 285.652 108.118,285.440 108.109,282.014 108.657 M310.138 109.203 C 312.885 109.966,315.042 115.032,313.780 117.760 C 313.556 118.244,313.385 118.699,313.400 118.772 C 313.415 118.845,313.348 118.905,313.251 118.905 C 313.154 118.905,313.071 119.004,313.066 119.125 C 313.049 119.595,310.717 121.352,309.496 121.815 C 304.056 123.877,299.055 115.411,303.149 111.071 C 304.618 109.514,308.001 108.610,310.138 109.203 M248.498 115.035 C 244.406 115.408,240.327 116.318,240.053 116.919 C 239.833 117.401,240.136 121.171,240.409 121.357 C 240.599 121.486,240.992 123.970,240.991 125.029 C 240.990 125.434,241.060 125.792,241.145 125.824 C 241.231 125.857,241.424 126.678,241.575 127.650 C 242.273 132.156,243.394 136.877,243.820 137.104 C 244.481 137.458,246.844 137.186,247.932 136.631 C 248.683 136.247,248.803 135.708,248.582 133.707 C 248.113 129.443,248.150 129.360,250.647 129.112 C 254.555 128.723,256.034 129.534,256.535 132.340 C 256.886 134.301,257.366 134.626,259.914 134.628 C 262.144 134.630,262.646 133.890,262.131 131.365 C 261.739 129.442,260.786 127.561,259.790 126.744 C 258.881 126.000,258.881 126.004,259.628 124.229 C 260.977 121.022,259.780 116.644,257.169 115.231 C 256.521 114.880,251.447 114.766,248.498 115.035 M231.272 117.853 C 226.583 118.557,222.311 119.395,219.727 120.118 L 218.695 120.406 218.755 122.665 C 218.790 123.957,218.895 124.979,219.000 125.051 C 219.101 125.120,219.440 126.902,219.753 129.011 C 220.478 133.885,221.466 139.456,221.768 140.371 C 222.058 141.252,221.825 141.259,228.438 140.176 C 239.538 138.357,240.962 137.894,241.039 136.081 C 241.126 134.041,239.312 133.842,232.427 135.136 C 226.522 136.246,226.414 136.228,226.454 134.128 C 226.494 132.047,226.505 132.041,232.951 130.930 C 238.887 129.907,238.837 129.921,239.235 129.267 C 239.666 128.560,239.692 127.099,239.283 126.516 C 238.792 125.814,231.938 126.350,227.127 127.465 C 225.331 127.882,225.030 127.655,224.801 125.714 C 224.557 123.635,224.805 123.507,231.112 122.444 C 238.172 121.255,238.340 121.179,238.060 119.313 C 237.740 117.177,236.932 117.003,231.272 117.853 M323.940 118.722 C 323.198 119.035,322.496 120.848,323.117 120.848 C 323.198 120.848,323.370 121.285,323.498 121.820 C 323.637 122.398,323.827 122.792,323.968 122.792 C 324.098 122.792,324.205 122.871,324.205 122.968 C 324.205 123.236,325.900 123.180,326.596 122.889 C 327.163 122.652,327.208 122.575,327.208 121.857 C 327.208 119.315,325.782 117.947,323.940 118.722 M253.240 119.370 C 253.693 119.723,254.064 120.081,254.064 120.165 C 254.064 120.249,254.223 120.477,254.417 120.671 C 255.808 122.063,254.266 123.557,250.494 124.471 C 247.488 125.199,247.203 125.097,246.741 123.138 C 246.059 120.246,246.495 119.688,249.912 119.080 C 252.331 118.648,252.311 118.647,253.240 119.370 M209.894 121.549 C 208.291 121.819,205.786 122.254,204.329 122.515 C 202.871 122.776,200.565 123.183,199.205 123.419 C 197.845 123.655,196.731 123.849,196.731 123.850 C 196.731 125.257,196.897 127.313,197.013 127.356 C 197.101 127.388,197.173 127.557,197.173 127.732 C 197.173 128.459,199.506 128.611,203.666 128.153 L 204.594 128.051 204.594 128.690 C 204.594 129.041,204.664 129.329,204.750 129.329 C 204.986 129.329,206.713 138.733,206.998 141.576 C 207.199 143.588,207.915 143.944,210.591 143.366 C 212.977 142.850,212.979 142.828,211.466 134.099 C 210.088 126.155,209.890 126.930,213.431 126.419 C 217.221 125.872,217.493 125.724,217.487 124.222 C 217.473 120.844,216.375 120.458,209.894 121.549 M185.777 125.376 C 183.880 125.749,183.366 125.895,182.617 126.273 C 182.142 126.513,181.547 126.901,181.294 127.135 C 181.041 127.370,180.745 127.562,180.636 127.562 C 180.141 127.562,178.064 130.243,178.342 130.521 C 178.397 130.576,178.367 130.712,178.275 130.823 C 178.183 130.934,178.130 131.259,178.157 131.546 C 178.184 131.833,178.126 132.173,178.028 132.301 C 177.903 132.466,177.922 132.580,178.092 132.686 C 178.292 132.809,178.294 132.884,178.103 133.114 C 177.956 133.291,177.942 133.392,178.065 133.392 C 178.171 133.392,178.211 133.512,178.155 133.659 C 178.098 133.806,178.148 134.042,178.264 134.182 C 178.380 134.322,178.424 134.520,178.362 134.621 C 178.299 134.723,178.341 134.806,178.455 134.806 C 178.578 134.806,178.624 134.954,178.568 135.168 C 178.217 136.513,181.584 138.248,185.573 138.776 C 192.144 139.645,193.040 140.102,191.222 141.653 C 188.965 143.577,187.295 143.572,185.187 141.634 C 183.075 139.692,178.901 140.351,179.200 142.578 C 180.295 150.745,198.164 148.578,198.125 140.283 C 198.109 136.680,196.438 135.279,191.166 134.445 C 190.437 134.329,189.761 134.175,189.664 134.101 C 189.567 134.027,188.821 133.871,188.006 133.755 C 184.805 133.296,183.501 132.608,184.003 131.643 C 185.119 129.499,188.454 129.234,190.601 131.119 C 192.477 132.766,196.113 132.396,196.113 130.558 C 196.113 127.377,190.333 124.478,185.777 125.376 M166.346 128.930 C 165.862 128.967,165.418 129.077,165.358 129.173 C 165.299 129.269,164.741 129.420,164.118 129.509 C 162.377 129.757,159.582 130.353,158.260 130.759 L 157.067 131.125 157.067 131.905 C 157.067 132.334,157.147 132.686,157.244 132.686 C 157.341 132.686,157.420 132.805,157.420 132.951 C 157.420 133.096,157.341 133.216,157.244 133.216 C 156.995 133.216,157.026 133.574,157.323 134.143 C 157.463 134.411,157.498 134.629,157.401 134.629 C 157.291 134.629,157.286 134.736,157.389 134.919 C 157.478 135.079,157.512 135.357,157.465 135.537 C 157.415 135.728,157.472 135.866,157.600 135.866 C 157.753 135.866,157.790 136.054,157.720 136.481 C 157.665 136.819,157.698 137.144,157.794 137.203 C 157.889 137.262,157.928 137.559,157.880 137.864 C 157.829 138.188,157.880 138.481,158.004 138.569 C 158.166 138.684,158.162 138.741,157.986 138.812 C 157.805 138.885,157.818 138.999,158.046 139.347 C 158.205 139.590,158.292 139.955,158.239 140.159 C 158.186 140.363,158.228 140.633,158.333 140.759 C 158.471 140.926,158.468 140.989,158.321 140.989 C 158.179 140.989,158.192 141.135,158.365 141.475 C 158.501 141.742,158.829 143.152,159.093 144.609 C 160.267 151.083,160.552 151.694,162.373 151.641 C 165.237 151.558,173.530 149.566,175.770 148.423 C 178.734 146.910,179.394 142.569,177.069 139.883 C 176.164 138.839,176.073 138.367,176.227 135.544 C 176.380 132.745,175.661 130.014,174.895 130.487 C 174.813 130.538,174.578 130.387,174.373 130.152 C 174.116 129.856,173.736 129.689,173.145 129.610 C 172.673 129.548,172.259 129.409,172.223 129.302 C 172.088 128.897,169.173 128.712,166.346 128.930 M302.915 132.603 C 301.360 132.837,296.511 133.670,292.138 134.453 C 279.101 136.788,275.978 137.295,274.028 137.390 C 273.008 137.440,271.855 137.593,271.466 137.730 C 269.756 138.334,260.947 140.043,258.922 140.163 C 258.631 140.180,258.352 140.242,258.304 140.299 C 258.255 140.357,257.460 140.540,256.537 140.707 C 252.862 141.368,247.294 142.612,244.700 143.351 C 242.993 143.837,241.919 144.064,241.850 143.954 C 241.781 143.843,241.711 143.859,241.666 143.994 C 241.561 144.309,237.405 145.237,237.238 144.984 C 237.149 144.849,237.107 144.860,237.105 145.019 C 237.104 145.146,237.023 145.201,236.926 145.141 C 236.829 145.081,236.749 145.104,236.749 145.192 C 236.749 145.359,233.454 146.029,232.686 146.017 C 232.443 146.014,232.185 146.094,232.114 146.195 C 232.035 146.307,231.982 146.275,231.979 146.113 C 231.975 145.917,231.937 145.905,231.835 146.066 C 231.646 146.364,229.153 146.833,229.149 146.572 C 229.148 146.465,229.078 146.486,228.995 146.617 C 228.912 146.749,228.495 146.880,228.070 146.910 C 227.645 146.939,227.172 147.013,227.020 147.075 C 226.867 147.136,226.152 147.203,225.430 147.224 C 224.707 147.245,224.058 147.341,223.987 147.438 C 223.910 147.542,223.855 147.506,223.852 147.350 C 223.847 147.137,223.817 147.131,223.697 147.321 C 223.586 147.495,223.391 147.516,222.948 147.402 C 222.287 147.231,220.910 147.494,220.701 147.832 C 220.502 148.153,219.627 148.421,219.157 148.303 C 218.878 148.232,218.728 148.270,218.728 148.411 C 218.728 148.546,218.564 148.596,218.292 148.545 C 218.053 148.499,217.831 148.540,217.799 148.635 C 217.767 148.731,217.267 148.819,216.688 148.831 C 216.110 148.843,215.528 148.923,215.395 149.008 C 215.242 149.106,215.102 149.077,215.011 148.928 C 214.898 148.746,214.770 148.739,214.427 148.895 C 214.186 149.005,213.624 149.059,213.178 149.016 C 212.603 148.959,212.367 149.001,212.365 149.159 C 212.363 149.310,212.307 149.296,212.191 149.117 C 212.091 148.963,212.018 148.939,212.017 149.059 C 212.015 149.201,211.749 149.239,211.175 149.179 C 210.103 149.067,206.779 149.563,206.241 149.916 C 204.551 151.023,207.107 151.135,216.230 150.350 C 218.597 150.147,220.744 150.005,221.000 150.034 L 221.466 150.088 221.852 157.155 C 222.293 165.239,222.548 173.565,222.376 174.252 C 222.194 174.976,219.737 175.451,213.074 176.049 C 207.789 176.524,194.241 177.339,194.093 177.191 C 194.053 177.150,193.929 171.276,193.819 164.137 C 193.708 156.997,193.593 151.132,193.564 151.102 C 193.503 151.042,193.344 158.665,193.175 169.655 L 193.062 177.032 191.231 177.032 C 190.128 177.032,189.399 177.102,189.399 177.208 C 189.399 177.315,188.663 177.385,187.544 177.385 C 186.524 177.385,185.689 177.317,185.689 177.233 C 185.689 177.150,185.254 177.036,184.722 176.981 C 183.439 176.849,183.336 176.769,183.658 176.147 C 184.082 175.327,183.984 174.375,183.351 173.146 C 182.727 171.937,180.791 169.788,180.326 169.788 C 180.166 169.788,180.035 169.669,180.035 169.523 C 180.035 169.377,179.885 169.258,179.701 169.258 C 179.516 169.258,179.178 169.061,178.950 168.819 C 178.721 168.578,178.437 168.379,178.319 168.378 C 178.014 168.373,176.855 167.803,176.855 167.658 C 176.855 167.591,176.537 167.485,176.148 167.423 C 175.760 167.361,175.442 167.248,175.442 167.173 C 175.442 167.097,174.746 166.934,173.896 166.810 C 171.470 166.455,171.201 166.401,171.201 166.258 C 171.201 166.184,170.925 166.079,170.586 166.024 C 168.330 165.658,165.676 162.432,165.364 159.676 C 165.185 158.086,165.068 157.774,164.652 157.774 C 164.106 157.774,163.891 158.405,164.136 159.282 C 164.558 160.787,164.030 160.685,162.164 158.899 C 160.827 157.620,160.601 157.568,158.392 158.036 C 157.633 158.197,156.167 158.299,154.594 158.302 C 151.665 158.307,149.983 158.530,149.196 159.016 C 147.954 159.784,140.522 161.556,137.653 161.769 C 135.823 161.905,134.868 162.237,133.829 163.099 C 133.346 163.499,132.595 163.981,132.161 164.168 C 131.727 164.355,131.023 164.794,130.597 165.143 C 129.089 166.379,128.764 166.396,124.293 165.463 C 119.638 164.491,119.888 165.321,124.801 167.148 C 126.950 167.947,126.932 167.902,126.958 172.705 C 126.981 177.009,127.059 177.307,128.692 179.311 C 130.341 181.335,133.254 186.501,134.792 190.127 C 135.609 192.055,135.665 192.403,135.160 192.403 C 133.876 192.403,118.304 186.142,117.277 185.213 C 116.407 184.426,115.896 181.939,115.105 174.647 C 114.131 165.662,112.984 163.299,112.988 170.283 C 112.990 174.220,113.035 174.586,114.166 179.912 C 114.554 181.739,114.828 183.349,114.774 183.489 C 114.511 184.174,112.895 183.406,108.482 180.500 C 101.002 175.574,98.621 173.200,98.309 170.362 C 98.164 169.046,97.934 168.962,97.229 169.966 C 96.580 170.891,96.161 170.990,95.320 170.419 C 93.511 169.192,93.659 170.439,95.563 172.479 C 98.044 175.136,101.966 182.509,100.899 182.509 C 99.999 182.509,95.760 177.053,93.880 173.475 C 93.159 172.103,91.979 170.671,91.569 170.671 C 90.043 170.671,96.114 181.445,102.128 189.409 C 127.403 222.882,166.073 239.362,208.202 234.617 C 228.272 232.356,251.325 222.405,266.252 209.560 C 281.216 196.683,292.586 181.333,299.116 165.194 C 303.257 154.957,307.232 139.170,307.034 133.746 L 306.979 132.244 306.360 132.211 C 306.020 132.192,304.470 132.369,302.915 132.603 M142.845 132.757 C 141.086 133.150,138.516 134.176,138.516 134.485 C 138.516 134.564,138.422 134.629,138.308 134.629 C 137.937 134.629,136.309 135.855,135.681 136.605 C 135.346 137.008,134.852 137.560,134.585 137.832 C 134.318 138.104,134.099 138.399,134.099 138.487 C 134.099 138.786,133.377 140.283,133.233 140.283 C 133.154 140.283,133.082 140.501,133.073 140.769 C 133.064 141.036,133.006 141.970,132.944 142.845 C 132.337 151.467,140.368 157.268,149.086 154.503 C 161.366 150.607,158.763 132.980,145.848 132.581 C 144.647 132.543,143.500 132.611,142.845 132.757 M169.258 133.928 C 169.695 134.024,170.239 134.144,170.467 134.196 C 170.755 134.262,170.848 134.375,170.773 134.570 C 170.714 134.724,170.756 134.960,170.867 135.093 C 171.017 135.275,171.017 135.336,170.866 135.336 C 170.740 135.336,170.706 135.499,170.774 135.772 C 170.846 136.058,170.785 136.307,170.599 136.493 C 170.443 136.650,170.356 136.845,170.407 136.927 C 170.519 137.109,169.569 137.809,169.209 137.809 C 168.817 137.809,167.432 138.326,167.314 138.517 C 167.257 138.609,166.658 138.764,165.982 138.861 C 164.097 139.133,163.474 138.435,163.441 136.011 C 163.423 134.647,163.721 134.412,166.166 133.866 C 166.819 133.720,168.456 133.753,169.258 133.928 M125.441 136.207 C 124.559 136.476,123.852 136.940,123.852 137.250 C 123.852 137.423,123.735 137.719,123.592 137.908 C 123.450 138.097,123.330 138.390,123.327 138.560 C 123.324 138.730,123.252 138.869,123.167 138.869 C 123.083 138.869,122.963 139.187,122.900 139.576 C 122.838 139.965,122.714 140.283,122.624 140.283 C 122.534 140.283,122.467 140.422,122.476 140.592 C 122.485 140.762,121.758 143.167,120.861 145.936 C 119.963 148.706,119.096 151.382,118.934 151.884 L 118.640 152.796 116.498 150.117 C 115.320 148.644,113.543 146.365,112.549 145.053 C 108.692 139.964,106.621 138.781,103.970 140.152 C 102.765 140.775,103.169 145.038,105.571 157.039 C 106.005 159.210,106.360 161.019,106.360 161.058 C 106.360 161.387,111.232 160.735,111.611 160.356 C 111.694 160.273,111.223 155.522,110.830 152.473 C 110.729 151.686,110.746 151.703,112.725 154.386 C 116.063 158.913,116.410 159.152,119.328 158.934 C 122.127 158.726,122.241 158.605,123.681 154.308 C 124.562 151.680,125.406 149.647,125.615 149.647 C 125.905 149.647,126.392 152.139,126.868 156.065 L 127.079 157.801 127.983 157.684 C 129.069 157.544,130.896 157.182,131.954 156.897 L 132.723 156.690 132.605 155.686 C 132.187 152.126,130.512 141.835,129.859 138.811 C 129.342 136.415,127.781 135.495,125.441 136.207 M146.704 137.446 C 146.806 137.548,147.018 137.633,147.174 137.633 C 147.814 137.633,150.405 139.944,150.241 140.370 C 150.195 140.491,150.285 140.640,150.443 140.700 C 150.600 140.761,150.680 140.890,150.619 140.988 C 150.559 141.086,150.574 141.166,150.653 141.166 C 150.733 141.166,150.904 141.504,151.035 141.917 C 152.786 147.454,147.607 152.235,142.459 149.833 C 137.469 147.504,137.136 140.846,141.882 138.263 C 143.894 137.168,146.059 136.801,146.704 137.446 M171.657 141.955 C 173.292 142.639,173.158 145.053,171.484 145.053 C 171.231 145.053,171.025 145.124,171.025 145.211 C 171.025 145.539,167.017 146.052,165.977 145.857 C 164.922 145.660,164.248 143.683,164.897 142.693 C 165.509 141.758,170.009 141.267,171.657 141.955 M88.428 142.789 C 87.007 143.293,86.417 144.411,84.463 150.296 C 82.875 155.080,81.938 157.712,81.579 158.398 L 81.332 158.870 79.744 156.953 C 78.870 155.898,76.948 153.476,75.471 151.569 C 71.275 146.152,70.832 145.831,68.274 146.353 C 66.528 146.709,66.078 147.000,66.078 147.775 C 66.078 150.275,68.773 166.183,69.347 167.071 C 69.761 167.710,72.166 167.646,74.185 166.942 L 74.783 166.733 74.675 165.478 C 74.616 164.788,74.445 163.520,74.295 162.662 C 74.144 161.803,73.971 160.491,73.910 159.746 L 73.799 158.392 74.200 158.746 C 74.420 158.940,75.278 160.013,76.105 161.131 C 79.428 165.616,80.464 166.180,83.834 165.339 C 85.225 164.992,85.805 164.025,87.098 159.894 C 88.492 155.441,88.846 155.479,89.572 160.159 C 90.227 164.382,90.175 164.324,92.781 163.793 C 95.487 163.241,95.506 163.226,95.440 161.743 C 95.299 158.546,93.104 146.123,92.194 143.375 L 91.961 142.668 90.459 142.634 C 89.633 142.616,88.719 142.685,88.428 142.789 M244.536 146.290 C 245.326 146.510,245.789 147.020,246.194 148.121 C 246.382 148.630,246.854 149.325,247.353 149.827 C 249.090 151.573,249.585 154.610,249.921 165.580 L 250.033 169.234 248.029 169.867 C 242.070 171.750,224.979 175.229,224.421 174.673 C 224.061 174.314,223.864 171.168,223.858 165.694 C 223.854 162.908,223.756 159.410,223.639 157.920 C 223.322 153.868,223.339 149.679,223.675 149.469 C 224.141 149.178,226.210 148.777,229.179 148.403 C 231.894 148.060,234.446 147.595,239.223 146.572 C 241.371 146.111,243.488 145.999,244.536 146.290 M60.601 147.540 C 59.211 147.817,58.851 148.041,58.670 148.740 C 58.424 149.688,58.411 149.852,58.528 150.530 C 58.587 150.870,58.725 151.864,58.835 152.739 C 59.007 154.109,61.635 168.938,61.722 169.024 C 61.796 169.099,66.024 168.496,66.385 168.359 C 67.108 168.084,66.899 166.136,64.942 154.893 C 64.312 151.279,63.774 148.123,63.745 147.880 C 63.685 147.377,62.215 147.218,60.601 147.540 M285.687 148.227 C 285.894 148.995,285.858 153.712,285.645 153.711 C 285.572 153.710,285.350 153.872,285.153 154.070 C 284.955 154.268,284.716 154.383,284.623 154.325 C 284.529 154.267,284.452 154.294,284.452 154.385 C 284.452 154.476,284.194 154.655,283.878 154.783 C 283.562 154.910,283.240 155.119,283.163 155.246 C 283.085 155.373,282.906 155.477,282.765 155.477 C 282.624 155.477,282.509 155.557,282.509 155.654 C 282.509 155.751,282.347 155.830,282.150 155.830 C 281.953 155.830,281.744 155.954,281.685 156.106 C 281.627 156.257,281.472 156.339,281.340 156.289 C 281.209 156.238,281.016 156.355,280.913 156.549 C 280.809 156.742,280.651 156.855,280.561 156.800 C 280.472 156.744,280.265 156.854,280.102 157.044 C 279.940 157.234,279.700 157.348,279.569 157.298 C 279.438 157.248,279.283 157.334,279.223 157.489 C 279.164 157.645,279.044 157.728,278.957 157.674 C 278.870 157.620,278.799 157.654,278.799 157.749 C 278.799 157.845,278.571 157.972,278.292 158.034 C 278.014 158.095,277.615 158.304,277.407 158.498 C 277.198 158.693,276.949 158.803,276.853 158.744 C 276.757 158.685,276.678 158.701,276.678 158.780 C 276.678 159.136,275.434 159.326,275.257 158.997 C 274.550 157.674,274.479 152.676,275.152 151.528 C 276.747 148.807,279.351 147.558,281.002 148.722 C 282.140 149.524,282.602 149.473,283.817 148.410 C 285.067 147.316,285.432 147.280,285.687 148.227 M52.507 149.067 C 50.819 149.463,50.830 149.337,51.949 155.742 C 52.852 160.911,52.909 163.655,52.144 165.142 C 50.473 168.391,45.663 168.251,44.148 164.910 C 43.490 163.459,43.254 163.340,41.532 163.592 C 37.245 164.219,36.969 164.820,39.366 168.316 C 42.845 173.388,50.517 173.672,56.110 168.934 C 58.869 166.597,59.063 164.964,57.667 155.830 C 56.583 148.737,56.177 148.204,52.507 149.067 M251.662 152.933 C 251.815 152.992,252.336 153.544,252.820 154.160 C 253.821 155.434,255.006 156.297,257.420 157.509 C 261.446 159.532,262.362 159.499,266.287 157.195 C 268.480 155.908,269.679 155.314,270.681 155.016 C 271.138 154.880,271.611 154.650,271.732 154.505 C 272.094 154.069,272.583 154.197,272.913 154.814 C 273.296 155.532,273.507 160.777,273.152 160.777 C 273.039 160.777,272.533 160.965,272.029 161.195 C 271.525 161.424,270.934 161.668,270.716 161.737 C 270.497 161.805,270.318 161.935,270.318 162.026 C 270.318 162.117,270.258 162.178,270.186 162.162 C 269.913 162.102,269.081 162.412,269.081 162.574 C 269.081 162.666,269.001 162.692,268.903 162.632 C 268.805 162.571,268.685 162.626,268.636 162.754 C 268.587 162.881,268.364 162.996,268.140 163.009 C 267.917 163.022,267.301 163.230,266.773 163.470 C 266.245 163.711,265.435 164.045,264.973 164.212 C 264.512 164.380,264.134 164.598,264.134 164.698 C 264.134 164.797,264.015 164.833,263.869 164.777 C 263.723 164.721,263.604 164.757,263.604 164.857 C 263.604 164.957,263.536 164.996,263.453 164.945 C 263.369 164.893,261.689 165.444,259.719 166.170 C 254.877 167.952,252.277 168.779,252.092 168.594 C 251.763 168.265,250.779 155.656,250.959 154.084 C 251.104 152.828,251.157 152.740,251.662 152.933 M286.005 157.553 C 288.541 160.994,289.112 163.101,288.715 167.555 C 288.192 173.433,286.453 175.673,278.794 180.337 C 276.517 181.723,272.982 183.644,272.891 183.545 C 272.858 183.510,273.019 182.248,273.249 180.742 C 274.246 174.192,274.782 169.426,274.897 166.069 C 275.050 161.635,274.974 161.779,277.953 160.286 C 279.147 159.688,281.157 158.563,282.420 157.786 C 285.194 156.080,284.931 156.097,286.005 157.553 M272.437 163.604 C 274.045 164.464,272.160 182.723,270.282 184.484 C 268.559 186.099,253.896 192.162,251.060 192.432 L 250.442 192.491 250.388 191.649 C 250.358 191.187,250.536 189.358,250.783 187.586 C 251.304 183.845,251.588 180.262,251.591 177.385 C 251.593 175.202,251.844 172.506,252.125 171.638 C 252.310 171.069,254.521 170.117,260.116 168.201 C 263.356 167.091,266.891 165.675,268.728 164.752 C 271.309 163.456,271.848 163.289,272.437 163.604 M249.986 171.847 C 250.399 172.137,250.403 172.164,250.303 174.542 C 250.007 181.633,248.925 191.589,248.323 192.753 C 247.570 194.209,225.296 199.223,224.245 198.173 C 223.843 197.771,223.740 191.868,224.019 185.247 C 224.386 176.528,224.492 176.307,228.474 175.983 C 232.550 175.652,245.192 173.077,247.339 172.141 C 248.734 171.532,249.426 171.455,249.986 171.847 M104.088 179.549 C 105.581 180.568,108.273 182.260,110.071 183.307 C 114.794 186.059,115.176 186.421,116.261 189.152 C 116.786 190.471,117.666 193.477,117.667 193.949 C 117.670 195.370,109.070 190.317,105.561 186.837 C 103.856 185.146,103.313 184.263,102.300 181.537 C 102.011 180.760,101.495 179.689,101.152 179.158 C 100.521 178.178,100.428 177.899,100.658 177.669 C 100.896 177.432,101.366 177.689,104.088 179.549 M222.535 178.224 C 222.489 178.589,222.406 180.954,222.351 183.481 C 222.158 192.327,221.768 198.168,221.354 198.426 C 220.824 198.756,218.615 199.123,215.096 199.464 C 213.061 199.662,210.311 199.950,208.985 200.104 C 204.858 200.586,204.888 200.397,209.720 195.495 C 213.720 191.436,214.185 190.634,213.869 188.338 C 213.679 186.955,213.196 186.405,211.659 185.820 C 210.931 185.543,209.382 184.890,208.216 184.369 C 204.820 182.851,202.349 182.155,200.349 182.155 C 197.421 182.155,193.431 180.419,194.259 179.504 C 194.674 179.045,194.917 179.017,200.353 178.801 C 207.336 178.524,213.909 178.094,215.106 177.836 C 215.724 177.703,217.511 177.598,219.393 177.585 L 222.619 177.562 222.535 178.224 M192.314 178.955 C 192.605 179.122,192.869 179.394,192.901 179.559 C 192.983 179.985,192.119 179.954,191.383 179.505 C 189.928 178.618,186.192 179.553,185.714 180.923 C 185.514 181.496,184.629 181.712,184.629 181.188 C 184.629 180.842,186.284 179.543,187.262 179.123 C 188.906 178.416,191.240 178.338,192.314 178.955 M284.210 179.412 C 284.264 179.554,284.220 180.210,284.110 180.869 C 284.000 181.528,283.843 182.678,283.760 183.424 C 283.574 185.116,283.330 185.474,281.113 187.313 C 278.449 189.525,270.172 194.789,269.856 194.473 C 269.807 194.425,269.962 193.522,270.200 192.466 C 271.177 188.130,272.552 186.055,275.619 184.286 C 278.884 182.403,280.045 181.680,281.449 180.654 C 283.629 179.059,284.009 178.888,284.210 179.412 M103.064 187.271 C 103.743 188.023,104.523 189.399,104.270 189.399 C 103.841 189.399,101.831 186.921,102.067 186.684 C 102.274 186.478,102.430 186.569,103.064 187.271 M120.318 188.636 C 124.618 190.497,127.328 191.545,130.742 192.670 C 137.164 194.785,137.793 195.164,138.311 197.231 C 139.117 200.443,139.438 203.462,138.992 203.633 C 138.417 203.854,126.238 199.088,122.269 197.089 C 120.335 196.115,118.028 191.852,117.544 188.357 L 117.436 187.580 117.949 187.707 C 118.232 187.776,119.298 188.194,120.318 188.636 M269.745 188.429 C 269.769 188.720,269.252 190.574,268.594 192.553 L 267.398 196.147 266.340 196.586 C 255.495 201.085,247.880 203.814,247.880 203.200 C 247.880 202.173,249.359 196.652,249.930 195.548 C 250.266 194.897,250.698 194.713,256.449 192.760 C 261.423 191.070,264.066 190.060,265.779 189.194 C 268.433 187.852,269.675 187.613,269.745 188.429 M108.862 191.419 C 109.770 192.142,111.466 193.308,112.633 194.011 C 118.003 197.248,121.555 200.651,121.555 202.560 C 121.555 204.753,109.133 195.164,107.454 191.674 C 106.494 189.680,106.641 189.653,108.862 191.419 M280.192 191.551 C 278.765 194.278,267.371 203.472,266.498 202.600 C 266.022 202.124,267.725 199.057,269.244 197.654 C 271.039 195.996,280.390 190.048,280.705 190.363 C 280.744 190.403,280.513 190.937,280.192 191.551 M141.798 197.157 C 145.012 199.286,147.358 201.642,148.434 203.824 C 149.408 205.797,148.860 206.168,145.869 205.563 C 142.059 204.791,141.307 204.202,140.823 201.612 C 140.708 200.992,140.337 199.605,140.000 198.530 C 139.106 195.680,139.320 195.517,141.798 197.157 M247.424 196.220 C 247.852 196.385,247.767 197.049,246.984 199.647 C 245.524 204.490,245.340 204.692,241.740 205.406 C 240.501 205.652,237.023 206.400,234.011 207.068 C 226.703 208.690,223.411 209.364,222.803 209.364 C 221.952 209.364,221.903 208.782,222.448 205.154 C 223.016 201.369,223.587 200.573,226.019 200.176 C 230.210 199.492,233.815 198.798,237.633 197.941 C 240.013 197.406,242.796 196.783,243.816 196.556 C 245.694 196.138,246.914 196.025,247.424 196.220 M125.265 200.442 C 128.369 201.748,130.655 202.626,135.247 204.276 C 139.753 205.894,140.402 206.387,141.811 209.258 C 143.209 212.106,143.319 212.033,139.521 210.765 C 127.806 206.854,124.227 204.827,122.040 200.868 C 120.719 198.479,120.626 198.491,125.265 200.442 M265.901 199.223 C 265.901 200.423,263.481 203.527,261.580 204.765 C 257.581 207.371,245.053 211.776,245.053 210.577 C 245.053 210.024,246.281 207.818,246.972 207.130 C 247.864 206.242,249.773 205.226,252.582 204.147 C 253.737 203.703,255.835 202.895,257.244 202.352 C 258.653 201.809,260.680 200.965,261.749 200.477 C 265.241 198.884,265.901 198.684,265.901 199.223 M272.422 201.433 C 270.829 203.446,260.441 212.267,260.085 211.911 C 259.891 211.716,262.260 208.580,263.689 207.141 C 265.453 205.365,266.456 204.615,270.177 202.289 C 273.053 200.493,273.217 200.430,272.422 201.433 M118.176 202.994 C 122.533 205.350,125.293 207.978,127.824 212.180 C 128.238 212.867,124.936 210.527,122.110 208.132 C 120.014 206.355,114.311 201.104,114.311 200.950 C 114.311 200.912,114.728 201.111,115.239 201.394 C 115.749 201.676,117.071 202.396,118.176 202.994 M221.555 201.214 C 221.555 203.995,220.588 208.532,219.729 209.786 C 219.181 210.586,219.140 211.074,219.562 211.809 C 219.951 212.486,219.702 213.860,218.892 215.508 C 218.202 216.915,217.924 217.086,215.986 217.301 C 213.586 217.567,194.183 218.588,194.025 218.456 C 193.959 218.401,194.359 213.365,194.436 213.283 C 194.465 213.252,197.259 213.154,200.645 213.065 C 211.343 212.785,218.813 211.739,218.120 210.618 C 217.898 210.259,209.704 210.482,202.181 211.051 L 200.741 211.160 202.567 208.406 C 203.571 206.892,204.557 205.196,204.759 204.637 C 204.960 204.079,205.193 203.503,205.276 203.357 C 205.874 202.302,209.777 201.567,216.464 201.250 C 220.706 201.049,221.555 201.043,221.555 201.214 M244.377 207.384 C 245.046 208.065,243.144 211.348,241.431 212.471 C 241.237 212.599,238.779 213.226,235.969 213.865 C 227.414 215.810,225.671 216.319,225.837 216.826 C 226.002 217.329,228.238 217.113,233.719 216.065 C 236.724 215.491,240.624 214.947,240.760 215.083 C 241.058 215.381,236.921 221.157,234.945 223.202 C 233.924 224.258,233.712 224.389,232.332 224.822 C 228.765 225.939,219.919 227.936,217.338 228.206 L 216.239 228.320 216.593 227.455 C 216.788 226.979,217.574 225.040,218.339 223.145 C 219.932 219.203,220.321 218.674,222.138 217.980 C 223.510 217.457,223.582 217.092,222.343 216.941 C 220.920 216.767,220.671 216.644,220.671 216.110 C 220.671 215.515,221.374 211.953,221.547 211.673 C 221.722 211.390,222.946 211.122,230.124 209.790 C 237.469 208.426,240.627 207.740,241.802 207.253 C 242.793 206.842,243.900 206.898,244.377 207.384 M146.555 207.609 C 148.423 208.007,148.686 208.240,148.862 209.651 C 149.522 214.935,146.111 214.707,143.384 209.285 C 142.124 206.780,142.277 206.699,146.555 207.609 M129.467 208.730 C 130.897 209.257,133.630 210.285,135.539 211.015 C 137.449 211.746,139.825 212.602,140.819 212.917 C 143.134 213.651,144.062 214.470,146.267 217.728 C 148.305 220.740,149.384 222.117,149.933 222.405 C 150.237 222.565,150.358 222.758,150.320 223.024 C 150.007 225.222,136.616 218.735,131.530 213.921 C 129.387 211.892,126.502 208.451,126.502 207.924 C 126.502 207.667,126.792 207.746,129.467 208.730 M260.726 208.062 C 260.878 208.516,256.845 213.204,254.793 214.961 C 251.223 218.017,242.945 222.148,238.406 223.140 L 236.927 223.463 237.312 222.906 C 238.051 221.838,239.496 220.048,240.551 218.893 C 241.155 218.232,241.989 217.023,242.484 216.092 C 243.687 213.826,243.862 213.710,247.968 212.457 C 249.134 212.101,252.155 210.990,254.682 209.988 C 260.733 207.589,260.584 207.636,260.726 208.062 M192.904 214.399 C 193.151 215.142,193.122 218.068,192.864 218.326 C 192.620 218.569,188.290 218.492,188.207 218.242 C 188.166 218.121,188.026 218.021,187.895 218.021 C 187.015 218.021,187.549 216.351,188.793 215.214 C 190.622 213.543,192.494 213.172,192.904 214.399 M149.349 215.487 C 150.728 216.456,151.278 218.615,150.507 220.033 L 150.230 220.543 149.633 219.888 C 147.741 217.809,146.429 215.577,146.821 215.105 C 147.188 214.662,148.445 214.852,149.349 215.487 M217.565 218.835 C 218.856 219.331,214.516 228.739,212.857 229.039 C 211.247 229.331,197.718 230.212,194.845 230.212 L 193.943 230.212 194.054 228.136 C 194.114 226.994,194.216 224.823,194.279 223.312 L 194.394 220.563 201.216 220.257 C 210.489 219.840,214.453 219.487,215.636 218.972 C 216.204 218.725,217.110 218.661,217.565 218.835 M190.945 220.493 L 192.756 220.495 192.756 225.088 L 192.756 229.682 189.841 229.682 C 188.015 229.682,186.926 229.748,186.926 229.859 C 186.926 229.958,186.425 230.035,185.777 230.035 C 185.146 230.035,184.629 229.976,184.629 229.903 C 184.630 229.830,183.854 229.796,182.907 229.828 C 178.842 229.964,175.303 229.385,173.368 228.268 C 171.374 227.117,171.520 226.341,173.771 226.126 C 175.932 225.920,176.067 225.611,174.602 224.237 L 173.587 223.285 174.912 223.436 C 178.377 223.830,179.466 223.612,182.043 222.006 C 184.090 220.730,185.804 220.271,187.986 220.416 C 188.617 220.458,189.949 220.493,190.945 220.493 M169.692 226.399 C 171.307 227.074,171.194 229.035,169.557 228.728 C 167.643 228.369,167.299 226.650,169.043 226.162 C 169.070 226.155,169.362 226.261,169.692 226.399 M226.594 228.615 C 226.362 228.990,220.586 230.639,216.078 231.617 C 215.155 231.817,214.203 232.026,213.962 232.082 C 212.952 232.314,214.192 231.461,215.610 230.949 C 218.833 229.784,226.936 228.062,226.594 228.615 M169.788 230.212 C 171.100 230.405,172.276 230.564,172.402 230.565 C 172.721 230.566,173.498 231.375,173.498 231.706 C 173.498 232.463,167.947 231.099,167.158 230.148 C 166.848 229.775,166.818 229.774,169.788 230.212 M184.106 231.544 C 191.629 232.038,193.601 232.477,192.859 233.491 C 191.986 234.683,175.972 232.923,175.972 231.636 C 175.972 231.198,178.412 231.170,184.106 231.544 M210.292 231.385 C 213.504 231.916,204.242 233.566,197.839 233.604 C 194.611 233.623,194.303 233.590,194.150 233.216 C 193.702 232.116,195.016 231.938,207.597 231.390 C 208.229 231.363,208.944 231.326,209.187 231.308 C 209.430 231.290,209.927 231.325,210.292 231.385 M107.917 255.383 C 103.504 256.599,101.556 261.302,103.755 265.429 C 106.516 270.608,116.723 269.796,117.597 264.327 L 117.713 263.604 116.208 263.604 C 114.762 263.604,114.698 263.621,114.595 264.032 C 114.118 265.933,110.845 267.053,108.657 266.064 C 104.965 264.395,105.067 259.180,108.818 257.839 C 111.095 257.025,114.488 258.206,114.488 259.813 C 114.488 260.240,114.512 260.247,115.989 260.247 L 117.491 260.247 117.487 259.673 C 117.466 256.466,112.336 254.166,107.917 255.383 M184.243 255.383 C 178.405 256.991,177.407 265.258,182.725 267.953 C 187.348 270.295,193.993 267.976,193.993 264.020 C 193.993 263.617,193.949 263.604,192.513 263.604 L 191.034 263.604 190.934 264.103 C 190.585 265.846,187.182 267.030,185.128 266.121 C 180.501 264.074,181.866 257.603,186.926 257.600 C 188.985 257.599,190.459 258.365,190.779 259.603 L 190.923 260.159 192.369 260.210 L 193.816 260.262 193.816 259.634 C 193.816 256.455,188.661 254.166,184.243 255.383 M200.707 255.376 C 197.009 256.401,194.985 259.485,195.585 263.179 C 196.839 270.888,209.012 270.829,210.256 263.107 C 211.082 257.979,206.040 253.897,200.707 255.376 M118.130 255.698 C 118.201 255.819,119.438 257.445,120.879 259.311 L 123.498 262.703 123.498 265.627 L 123.498 268.551 125.088 268.551 L 126.678 268.551 126.682 265.680 L 126.685 262.809 128.055 261.042 C 128.808 260.071,130.084 258.421,130.890 257.376 L 132.355 255.477 130.514 255.477 L 128.672 255.477 126.931 257.968 L 125.190 260.460 124.787 259.956 C 124.566 259.679,123.768 258.561,123.014 257.473 L 121.643 255.493 119.822 255.485 C 118.412 255.479,118.030 255.527,118.130 255.698 M133.569 262.035 L 133.569 268.594 138.040 268.523 L 142.511 268.452 143.561 267.927 C 145.923 266.748,146.175 263.606,143.990 262.599 C 143.155 262.215,143.148 262.183,143.802 261.810 C 145.285 260.967,145.602 258.486,144.408 257.067 C 143.336 255.793,141.877 255.477,137.070 255.477 L 133.569 255.477 133.569 262.035 M146.820 262.014 L 146.820 268.551 152.827 268.551 L 158.834 268.551 158.834 267.403 L 158.834 266.254 154.417 266.254 L 150.000 266.254 150.000 264.753 L 150.000 263.251 154.417 263.251 L 158.834 263.251 158.834 262.102 L 158.834 260.954 154.417 260.954 L 150.000 260.954 150.000 259.364 L 150.000 257.774 154.417 257.774 L 158.834 257.774 158.834 256.625 L 158.834 255.477 152.827 255.477 L 146.820 255.477 146.820 262.014 M160.601 262.014 L 160.601 268.551 162.191 268.551 L 163.781 268.551 163.781 266.254 L 163.781 263.958 165.642 263.958 C 168.528 263.958,169.258 264.469,169.258 266.489 C 169.258 267.016,169.308 267.695,169.368 267.999 L 169.479 268.551 171.015 268.551 L 172.551 268.551 172.479 267.005 C 172.389 265.095,171.962 264.062,171.091 263.646 C 170.354 263.295,170.355 263.256,171.111 262.766 C 173.007 261.538,173.008 257.824,171.113 256.499 C 169.987 255.712,168.452 255.484,164.267 255.480 L 160.601 255.477 160.601 262.014 M212.014 262.014 L 212.014 268.551 213.600 268.551 L 215.187 268.551 215.235 265.150 L 215.283 261.749 217.036 265.150 L 218.789 268.551 220.393 268.549 L 221.996 268.546 223.675 265.238 L 225.353 261.930 225.442 265.197 L 225.530 268.463 227.076 268.514 L 228.622 268.565 228.622 262.021 L 228.622 255.477 227.045 255.477 L 225.467 255.477 222.956 260.365 C 220.655 264.845,220.424 265.225,220.197 264.915 C 220.060 264.728,218.898 262.529,217.615 260.027 L 215.283 255.477 213.648 255.477 L 212.014 255.477 212.014 262.014 M230.389 262.014 L 230.389 268.551 231.975 268.551 L 233.561 268.551 233.609 265.150 L 233.657 261.749 235.411 265.150 L 237.164 268.551 238.767 268.549 L 240.371 268.546 242.049 265.238 L 243.728 261.930 243.816 265.197 L 243.905 268.463 245.451 268.514 L 246.996 268.565 246.996 262.021 L 246.996 255.477 245.419 255.477 L 243.842 255.477 241.331 260.365 C 239.029 264.845,238.799 265.225,238.571 264.915 C 238.435 264.728,237.273 262.529,235.990 260.027 L 233.657 255.477 232.023 255.477 L 230.389 255.477 230.389 262.014 M251.577 261.791 C 249.787 265.263,248.296 268.205,248.264 268.328 C 248.222 268.495,248.589 268.551,249.724 268.551 L 251.240 268.551 251.806 267.403 L 252.373 266.254 256.354 266.256 L 260.336 266.257 260.945 267.404 L 261.554 268.551 263.122 268.551 C 264.310 268.551,264.676 268.496,264.633 268.325 C 264.602 268.200,263.117 265.258,261.333 261.788 L 258.091 255.477 256.462 255.477 L 254.833 255.477 251.577 261.791 M265.724 262.014 L 265.724 268.551 267.135 268.551 L 268.545 268.551 268.592 264.464 L 268.640 260.377 272.261 264.459 L 275.883 268.542 277.341 268.547 L 278.799 268.551 278.799 262.014 L 278.799 255.477 277.385 255.477 L 275.972 255.477 275.972 259.568 L 275.972 263.659 275.609 263.330 C 275.409 263.150,273.763 261.309,271.950 259.239 L 268.655 255.477 267.190 255.477 L 265.724 255.477 265.724 262.014 M280.565 262.039 L 280.565 268.601 284.320 268.494 C 291.916 268.278,293.995 266.765,293.781 261.606 C 293.584 256.866,291.371 255.497,283.878 255.483 L 280.565 255.477 280.565 262.039 M204.859 257.933 C 209.034 259.870,207.635 266.411,203.042 266.427 C 199.854 266.438,197.752 263.461,198.791 260.406 C 199.563 258.135,202.614 256.891,204.859 257.933 M168.244 257.960 C 169.068 258.189,169.521 258.843,169.497 259.766 C 169.460 261.168,168.444 261.649,165.504 261.657 L 163.781 261.661 163.781 259.717 L 163.781 257.774 165.680 257.775 C 166.725 257.775,167.878 257.859,168.244 257.960 M288.971 258.399 C 290.384 259.105,290.842 259.978,290.839 261.960 C 290.834 265.078,289.566 266.129,285.777 266.153 L 283.657 266.166 283.610 261.949 L 283.562 257.731 285.743 257.804 C 287.728 257.870,288.017 257.923,288.971 258.399 M141.330 258.209 C 141.902 258.505,142.049 258.796,142.049 259.634 C 142.049 260.956,140.999 261.473,138.295 261.480 L 136.749 261.484 136.749 259.717 L 136.749 257.951 138.790 257.951 C 140.235 257.951,140.976 258.026,141.330 258.209 M259.011 263.690 C 259.011 263.740,257.858 263.781,256.449 263.781 C 254.825 263.781,253.887 263.715,253.887 263.601 C 253.887 263.396,255.295 260.544,255.963 259.397 L 256.407 258.635 257.709 261.117 C 258.425 262.482,259.011 263.640,259.011 263.690 M141.947 263.591 C 143.410 264.967,142.258 265.970,139.120 266.051 L 136.749 266.112 136.749 264.580 L 136.749 263.047 139.121 263.105 C 141.347 263.159,141.520 263.189,141.947 263.591 " stroke="none" fill="#fbfbfc" fill-rule="evenodd"></path><path id="path1" d="M193.463 248.947 C 192.345 249.015,170.939 249.081,145.892 249.093 L 100.353 249.117 100.353 261.661 L 100.353 274.205 198.675 274.205 L 296.996 274.205 296.996 261.484 L 296.996 248.763 246.246 248.794 C 218.333 248.811,194.580 248.880,193.463 248.947 M113.563 255.391 C 115.757 256.007,117.401 257.763,117.530 259.629 L 117.580 260.336 116.049 260.387 L 114.519 260.437 114.398 259.888 C 114.110 258.576,112.525 257.597,110.689 257.597 C 105.734 257.597,104.195 263.933,108.655 265.969 C 110.790 266.943,113.982 265.895,114.456 264.064 L 114.598 263.516 116.177 263.516 L 117.756 263.516 117.697 264.134 C 117.219 269.143,108.537 270.819,104.559 266.671 C 102.174 264.184,102.279 259.326,104.768 256.998 C 106.777 255.119,110.300 254.475,113.563 255.391 M188.655 255.130 C 191.372 255.571,193.168 256.826,193.715 258.668 C 194.235 260.422,194.234 260.424,192.403 260.424 C 190.866 260.424,190.813 260.411,190.813 260.022 C 190.813 258.680,188.698 257.465,186.658 257.634 C 181.578 258.055,180.781 264.695,185.631 266.190 C 187.718 266.834,190.531 265.644,190.900 263.962 L 191.017 263.428 192.511 263.428 C 194.273 263.428,194.331 263.490,193.907 264.947 C 192.601 269.439,184.350 270.480,180.839 266.595 C 179.189 264.768,178.696 261.593,179.675 259.099 C 180.859 256.086,184.534 254.461,188.655 255.130 M205.937 255.582 C 211.669 257.600,211.990 265.631,206.443 268.226 C 201.129 270.713,195.495 267.516,195.495 262.014 C 195.495 256.697,200.444 253.648,205.937 255.582 M289.165 255.741 C 292.420 256.481,293.888 258.427,293.899 262.014 C 293.914 266.947,291.524 268.532,284.055 268.545 L 280.389 268.551 280.389 262.044 C 280.389 258.464,280.448 255.473,280.521 255.396 C 280.755 255.149,287.798 255.430,289.165 255.741 M123.317 257.768 C 124.202 259.028,124.992 260.099,125.073 260.150 C 125.155 260.200,125.966 259.172,126.877 257.866 L 128.534 255.491 130.433 255.484 C 131.477 255.480,132.332 255.513,132.332 255.557 C 132.332 255.602,131.100 257.243,129.594 259.204 L 126.855 262.771 126.855 265.661 L 126.855 268.551 125.177 268.551 L 123.498 268.551 123.498 265.708 L 123.498 262.865 120.892 259.491 C 119.459 257.636,118.182 255.974,118.055 255.797 C 117.836 255.493,117.924 255.477,119.767 255.477 L 121.709 255.477 123.317 257.768 M143.110 255.983 C 145.532 257.257,146.016 259.939,144.123 261.600 L 143.495 262.152 144.127 262.569 C 146.525 264.148,145.879 267.435,143.001 268.301 C 142.381 268.488,141.057 268.551,137.781 268.551 L 133.392 268.551 133.392 262.003 L 133.392 255.455 137.853 255.510 C 142.149 255.563,142.344 255.581,143.110 255.983 M159.011 256.625 L 159.011 257.774 154.505 257.774 L 150.000 257.774 150.000 259.273 L 150.000 260.771 154.461 260.819 L 158.922 260.866 158.975 262.058 L 159.027 263.251 154.513 263.251 L 150.000 263.251 150.000 264.661 L 150.000 266.072 154.461 266.119 L 158.922 266.166 158.975 267.359 L 159.027 268.551 152.923 268.551 L 146.820 268.551 146.820 262.014 L 146.820 255.477 152.915 255.477 L 159.011 255.477 159.011 256.625 M169.409 255.665 C 172.663 256.363,173.812 260.412,171.380 262.610 L 170.696 263.228 171.302 263.690 C 172.189 264.366,172.454 265.027,172.591 266.900 L 172.713 268.563 171.029 268.513 L 169.346 268.463 169.241 266.928 C 169.071 264.437,168.728 264.155,165.680 264.003 L 163.781 263.908 163.781 266.229 L 163.781 268.551 162.191 268.551 L 160.601 268.551 160.601 262.014 L 160.601 255.477 164.567 255.477 C 166.749 255.477,168.927 255.561,169.409 255.665 M217.901 260.376 L 220.386 265.186 222.870 260.334 L 225.353 255.481 227.076 255.479 L 228.799 255.477 228.799 262.014 L 228.799 268.551 227.124 268.551 L 225.450 268.551 225.402 265.358 L 225.353 262.165 223.702 265.364 L 222.051 268.564 220.345 268.513 L 218.640 268.463 217.049 265.371 L 215.459 262.279 215.411 265.415 L 215.363 268.551 213.689 268.551 L 212.014 268.551 212.014 262.008 L 212.014 255.464 213.714 255.515 L 215.415 255.565 217.901 260.376 M236.275 260.376 L 238.761 265.186 241.244 260.334 L 243.728 255.481 245.451 255.479 L 247.173 255.477 247.173 262.014 L 247.173 268.551 245.499 268.551 L 243.824 268.551 243.776 265.358 L 243.728 262.165 242.077 265.364 L 240.426 268.564 238.720 268.513 L 237.014 268.463 235.424 265.371 L 233.834 262.279 233.786 265.415 L 233.737 268.551 232.063 268.551 L 230.389 268.551 230.389 262.008 L 230.389 255.464 232.089 255.515 L 233.789 255.565 236.275 260.376 M261.484 261.860 C 263.282 265.365,264.779 268.305,264.812 268.392 C 264.844 268.480,264.086 268.551,263.127 268.551 L 261.383 268.551 260.817 267.403 L 260.251 266.254 256.360 266.254 L 252.470 266.254 251.904 267.403 L 251.338 268.551 249.697 268.551 C 248.795 268.551,248.057 268.522,248.057 268.487 C 248.057 268.393,254.243 256.348,254.534 255.875 C 254.761 255.506,254.903 255.477,256.497 255.482 L 258.216 255.486 261.484 261.860 M272.261 259.437 L 275.707 263.376 275.754 259.426 L 275.802 255.477 277.300 255.477 L 278.799 255.477 278.799 262.014 L 278.799 268.551 277.303 268.551 L 275.808 268.551 272.312 264.631 L 268.816 260.710 268.769 264.631 L 268.721 268.551 267.223 268.551 L 265.724 268.551 265.724 262.014 L 265.724 255.477 267.270 255.488 L 268.816 255.498 272.261 259.437 M201.855 257.753 C 196.987 259.026,197.967 266.431,203.004 266.431 C 206.541 266.431,208.518 262.028,206.292 259.109 C 205.477 258.040,203.300 257.375,201.855 257.753 M163.899 257.892 C 163.834 257.956,163.781 258.799,163.781 259.765 L 163.781 261.520 166.034 261.454 C 169.192 261.361,170.431 260.174,169.037 258.574 C 168.492 257.948,164.387 257.403,163.899 257.892 M283.746 261.899 L 283.746 266.078 285.569 266.078 C 289.542 266.078,291.053 264.737,290.781 261.454 C 290.570 258.912,289.352 258.053,285.645 257.833 L 283.746 257.720 283.746 261.899 M136.749 259.610 L 136.749 261.307 138.666 261.307 C 141.255 261.307,142.350 260.587,141.984 259.126 C 141.771 258.277,141.135 258.045,138.833 257.976 L 136.749 257.913 136.749 259.610 M255.612 260.269 C 255.171 261.083,254.601 262.167,254.346 262.677 L 253.881 263.604 256.357 263.604 C 257.720 263.604,258.832 263.584,258.830 263.560 C 258.828 263.536,258.283 262.453,257.620 261.153 L 256.413 258.790 255.612 260.269 M136.749 264.579 L 136.749 266.132 138.973 266.013 C 141.497 265.878,142.135 265.656,142.312 264.854 C 142.590 263.587,141.882 263.213,139.002 263.109 L 136.749 263.027 136.749 264.579 " stroke="none" fill="#045ccc" fill-rule="evenodd"></path><path id="path2" d="M228.702 262.014 C 228.702 265.561,228.725 267.012,228.754 265.239 C 228.783 263.465,228.783 260.563,228.754 258.790 C 228.725 257.016,228.702 258.467,228.702 262.014 M247.076 262.014 C 247.076 265.561,247.100 267.012,247.129 265.239 C 247.158 263.465,247.158 260.563,247.129 258.790 C 247.100 257.016,247.076 258.467,247.076 262.014 M268.627 264.488 C 268.627 266.674,268.652 267.568,268.683 266.475 C 268.714 265.382,268.714 263.593,268.683 262.500 C 268.652 261.407,268.627 262.301,268.627 264.488 " stroke="none" fill="#7dace4" fill-rule="evenodd"></path><path id="path3" d="M202.694 255.069 C 202.864 255.113,203.143 255.113,203.313 255.069 C 203.483 255.024,203.344 254.988,203.004 254.988 C 202.663 254.988,202.524 255.024,202.694 255.069 M281.846 255.432 C 282.599 255.465,283.832 255.465,284.585 255.432 C 285.338 255.399,284.722 255.371,283.216 255.371 C 281.709 255.371,281.093 255.399,281.846 255.432 M133.472 262.014 C 133.472 265.658,133.496 267.149,133.524 265.327 C 133.553 263.505,133.553 260.523,133.524 258.701 C 133.496 256.879,133.472 258.370,133.472 262.014 M275.871 259.452 C 275.871 261.687,275.896 262.577,275.927 261.430 C 275.958 260.283,275.958 258.454,275.927 257.366 C 275.896 256.279,275.871 257.217,275.871 259.452 M115.244 260.377 C 115.708 260.414,116.424 260.414,116.834 260.376 C 117.244 260.339,116.864 260.310,115.989 260.310 C 115.115 260.311,114.779 260.341,115.244 260.377 M191.564 260.377 C 192.025 260.414,192.780 260.414,193.242 260.377 C 193.704 260.341,193.326 260.311,192.403 260.311 C 191.480 260.311,191.102 260.341,191.564 260.377 M152.164 260.909 C 153.403 260.940,155.431 260.940,156.670 260.909 C 157.909 260.879,156.895 260.854,154.417 260.854 C 151.939 260.854,150.925 260.879,152.164 260.909 M137.505 261.438 C 137.970 261.474,138.685 261.474,139.095 261.437 C 139.505 261.399,139.125 261.370,138.251 261.370 C 137.376 261.371,137.041 261.401,137.505 261.438 M164.532 261.614 C 164.993 261.650,165.749 261.650,166.210 261.614 C 166.672 261.578,166.294 261.548,165.371 261.548 C 164.448 261.548,164.070 261.578,164.532 261.614 M215.194 265.283 C 215.194 267.113,215.231 268.574,215.275 268.529 C 215.396 268.408,215.418 262.179,215.298 262.059 C 215.241 262.002,215.194 263.453,215.194 265.283 M233.569 265.283 C 233.569 267.113,233.605 268.574,233.650 268.529 C 233.771 268.408,233.793 262.179,233.673 262.059 C 233.616 262.002,233.569 263.453,233.569 265.283 M126.750 265.724 C 126.750 267.328,126.777 267.984,126.810 267.182 C 126.843 266.380,126.843 265.068,126.810 264.267 C 126.777 263.465,126.750 264.121,126.750 265.724 M152.164 266.210 C 153.403 266.240,155.431 266.240,156.670 266.210 C 157.909 266.179,156.895 266.155,154.417 266.155 C 151.939 266.155,150.925 266.179,152.164 266.210 M284.408 266.207 C 284.821 266.244,285.497 266.244,285.910 266.207 C 286.323 266.170,285.985 266.139,285.159 266.139 C 284.333 266.139,283.995 266.170,284.408 266.207 " stroke="none" fill="#72a4e4" fill-rule="evenodd"></path><path id="path4" d="M158.892 256.625 C 158.893 257.306,158.925 257.562,158.963 257.196 C 159.001 256.829,159.000 256.273,158.961 255.959 C 158.922 255.645,158.891 255.945,158.892 256.625 M280.469 262.014 C 280.469 265.658,280.492 267.149,280.521 265.327 C 280.550 263.505,280.550 260.523,280.521 258.701 C 280.492 256.879,280.469 258.370,280.469 262.014 M283.645 261.926 C 283.645 264.258,283.670 265.188,283.701 263.992 C 283.732 262.796,283.731 260.888,283.701 259.751 C 283.670 258.615,283.645 259.594,283.645 261.926 M158.890 262.014 C 158.890 262.646,158.923 262.904,158.962 262.588 C 159.001 262.273,159.001 261.756,158.962 261.440 C 158.923 261.124,158.890 261.383,158.890 262.014 M179.202 261.926 C 179.204 262.412,179.238 262.589,179.279 262.321 C 179.319 262.052,179.318 261.655,179.276 261.438 C 179.234 261.220,179.201 261.440,179.202 261.926 M293.861 262.102 C 293.863 262.491,293.899 262.629,293.941 262.410 C 293.983 262.190,293.982 261.872,293.938 261.703 C 293.893 261.534,293.859 261.714,293.861 262.102 M115.421 263.558 C 115.885 263.594,116.601 263.594,117.011 263.557 C 117.421 263.520,117.041 263.490,116.166 263.490 C 115.292 263.491,114.956 263.521,115.421 263.558 M191.829 263.557 C 192.242 263.594,192.917 263.594,193.330 263.557 C 193.743 263.520,193.405 263.489,192.580 263.489 C 191.754 263.489,191.416 263.520,191.829 263.557 M256.360 263.604 L 253.799 263.707 256.405 263.744 C 258.049 263.767,259.011 263.716,259.011 263.604 C 259.011 263.507,258.991 263.444,258.966 263.464 C 258.942 263.485,257.769 263.548,256.360 263.604 M158.892 267.403 C 158.893 268.083,158.925 268.340,158.963 267.973 C 159.001 267.607,159.000 267.050,158.961 266.736 C 158.922 266.423,158.891 266.723,158.892 267.403 " stroke="none" fill="#9dc0ed" fill-rule="evenodd"></path></g></svg>